<?xml version="1.0" encoding="UTF-8"?>
<svg id="Layer_2" data-name="Layer 2" xmlns="http://www.w3.org/2000/svg" viewBox="0 0 80.5 500">
  <defs>
    <style>
      .cls-1 {
        fill: #331817;
      }
    </style>
  </defs>
  <g id="Layer_1-2" data-name="Layer 1">
    <path class="cls-1" d="M1.5,245.5c10.33-.66,19.33-4.66,27-12,7.66-7.33,11.5-17.66,11.5-31,0-6.66-.84-13.16-2.5-19.5-1.67-6.33-4.5-12.5-8.5-18.5-7.67-11.66-14.42-23.66-20.25-36C2.91,116.17,0,100.84,0,82.5c0-14.66,3.58-27.66,10.75-39,7.16-11.33,16.75-20.75,28.75-28.25S64.5,2.67,78.5,0l2,12c-14.67,7.34-26.67,17.17-36,29.5-9.34,12.34-14,26.34-14,42,0,8.67,1.41,17.75,4.25,27.25,2.83,9.5,6.91,19.59,12.25,30.25,10.66,21.34,16,40.67,16,58,0,8.34-1.34,15.67-4,22-1.67,4.34-4.34,8.75-8,13.25-3.67,4.5-7.17,8.25-10.5,11.25-3.34,3-5.67,4.5-7,4.5,7,3.34,13.66,9.75,20,19.25,6.33,9.5,9.5,20.09,9.5,31.75,0,17.67-5.34,36.84-16,57.5-11,21-16.5,40.34-16.5,58,0,15.67,4.66,29.59,14,41.75,9.33,12.17,21.33,22.09,36,29.75l-2,12c-14-2.66-27-7.75-39-15.25s-21.59-17-28.75-28.5c-7.17-11.5-10.75-24.41-10.75-38.75s1.75-27.58,5.25-37.75c3.5-10.16,8.41-19.75,14.75-28.75,5-7.33,9.58-15.5,13.75-24.5,4.16-9,6.25-18.66,6.25-29,0-13.33-3.75-23.5-11.25-30.5s-16.59-11.16-27.25-12.5v-9Z"/>
  </g>
</svg>