<?xml version="1.0" encoding="UTF-8"?>
<svg id="Layer_2" data-name="Layer 2" xmlns="http://www.w3.org/2000/svg" xmlns:xlink="http://www.w3.org/1999/xlink" viewBox="0 0 452.84 452.84">
  <defs>
    <style>
      .cls-1 {
        fill: none;
      }

      .cls-2 {
        clip-path: url(#clippath);
      }
    </style>
    <clipPath id="clippath">
      <rect class="cls-1" width="452.84" height="452.84"/>
    </clipPath>
  </defs>
  <g id="Layer_1-2" data-name="Layer 1">
    <g class="cls-2">
      <path d="M301.22,219.32c0-40.8-29.8-70.4-73.8-70.4s-75.8,33.8-75.8,77.8,29.2,77.2,72.4,77.2c13.6,0,28.8-2.6,40-8l8,15.4c-13.8,6.6-32,10.4-48,10.4-54.4,0-90.8-40.6-90.8-95s39.8-95.6,94.2-95.6,92.2,36.4,92.2,88.2c0,44-18,60.8-42.8,60.8-19,0-25.8-9-27.2-22-7,9.6-20,14.2-31.2,14.2-25.4,0-42.8-20.6-42.8-45.6s17.2-45.6,43.4-45.6c10.4,0,21,3,29.2,13.2v-11.2h19.6v70c0,7.8,4.2,10.6,9,10.6,14.2-.6,24.4-13.8,24.4-44.4ZM221.62,254.72c15.2,0,26.4-10.6,26.4-27.6s-10.6-28.4-26.8-28.4-26,12.6-26,28,10.2,28,26.4,28Z"/>
    </g>
  </g>
</svg>