<?xml version="1.0" encoding="UTF-8"?>
<svg id="Layer_2" data-name="Layer 2" xmlns="http://www.w3.org/2000/svg" xmlns:xlink="http://www.w3.org/1999/xlink" viewBox="0 0 452.84 452.84">
  <defs>
    <style>
      .cls-1 {
        fill: none;
      }

      .cls-2 {
        clip-path: url(#clippath);
      }
    </style>
    <clipPath id="clippath">
      <rect class="cls-1" width="452.84" height="452.84"/>
    </clipPath>
  </defs>
  <g id="Layer_1-2" data-name="Layer 1">
    <g class="cls-2">
      <g>
        <path d="M155.12,225.02c16.8,3.2,29.2,18.8,29.2,33.2,0,23.8-20,39.4-49.6,39.4h-58.6v-140.2l52.6.2c28.2,0,49.2,14.4,49.2,38.2,0,12-7.6,23.8-22.8,29.2ZM119.92,216.42c21.8,0,26.6-10,26.6-19.2,0-10.2-8.4-15-17.8-15h-21.6v34.2h12.8ZM107.12,238.02v35h27.6c10.4,0,18.2-6,18.2-15.4s-3.8-19.6-29.6-19.6h-16.2Z"/>
        <path d="M326.72,299.82c-15.2,0-24.8-6.6-32.2-17.2v15h-29.8v-144.6h29.8v56c7-9.4,19-16.2,32.8-16.2,32,0,49.4,24.2,49.4,53s-18.8,54-50,54ZM321.32,217.02c-16.2,0-27.6,11.4-27.6,30.6s12.2,28,26.8,28c16.6,0,26.4-13,26.4-29.6s-9.2-29-25.6-29Z"/>
      </g>
    </g>
  </g>
</svg>