<?xml version="1.0" encoding="UTF-8"?>
<svg id="Layer_2" data-name="Layer 2" xmlns="http://www.w3.org/2000/svg" xmlns:xlink="http://www.w3.org/1999/xlink" viewBox="0 0 452.84 452.84">
  <defs>
    <style>
      .cls-1 {
        fill: none;
      }

      .cls-2 {
        clip-path: url(#clippath);
      }
    </style>
    <clipPath id="clippath">
      <rect class="cls-1" width="452.84" height="452.84"/>
    </clipPath>
  </defs>
  <g id="Layer_1-2" data-name="Layer 1">
    <g class="cls-2">
      <g>
        <path d="M155.82,154.22c21.8,0,36,7,50.2,17.6l-12.8,23.6c-10.2-7.8-21.2-13.6-37.2-13.6-28.4,0-45.6,19.8-45.6,44.6s17.2,44.6,45.6,44.6c16,0,27-5.8,37.2-13.6l12.8,23.6c-14.2,10.6-28.4,17.6-50.2,17.6-47.4,0-76.8-33.2-76.8-72.2s29.4-72.2,76.8-72.2Z"/>
        <path d="M331.82,191.62c10.6,0,24.4,2.2,42,15.2l-13.6,21.8c-10-9-21.8-10.2-27-10.2-17.6,0-29,10.8-29,26.6s11.4,26.6,29,26.6c5.2,0,17-1.2,27-10.2l13.6,21.8c-17.6,13-31.4,15.2-42,15.2-35.2,0-57.4-23-57.4-53.4s22.2-53.4,57.4-53.4Z"/>
      </g>
    </g>
  </g>
</svg>