<?xml version="1.0" encoding="UTF-8"?>
<svg id="Layer_2" data-name="Layer 2" xmlns="http://www.w3.org/2000/svg" xmlns:xlink="http://www.w3.org/1999/xlink" viewBox="0 0 452.84 452.84">
  <defs>
    <style>
      .cls-1 {
        fill: none;
      }

      .cls-2 {
        clip-path: url(#clippath);
      }
    </style>
    <clipPath id="clippath">
      <rect class="cls-1" width="452.84" height="452.84"/>
    </clipPath>
  </defs>
  <g id="Layer_1-2" data-name="Layer 1">
    <g class="cls-2">
      <g>
        <path d="M102.92,299.82v-140h93v24.6h-62v34.4h53.8v24.6h-53.8v56.4h-31Z"/>
        <path d="M311.32,198.02h23v22.6h-23v79.2h-29.8v-79.2h-14.4v-22.6h14.4v-6.8c0-29.8,17.4-38.2,35.6-38.2,24.2,0,32.8,15.4,32.8,30.6,0,1-.4,4.2-1,5.6h-23c.6-.6.8-2.6.8-3.4,0-4.8-2-9-7.8-9s-7.6,5-7.6,9.6v11.6Z"/>
      </g>
    </g>
  </g>
</svg>