<?xml version="1.0" encoding="UTF-8"?>
<svg id="Layer_2" data-name="Layer 2" xmlns="http://www.w3.org/2000/svg" xmlns:xlink="http://www.w3.org/1999/xlink" viewBox="0 0 452.84 452.84">
  <defs>
    <style>
      .cls-1 {
        fill: none;
      }

      .cls-2 {
        clip-path: url(#clippath);
      }
    </style>
    <clipPath id="clippath">
      <rect class="cls-1" width="452.84" height="452.84"/>
    </clipPath>
  </defs>
  <g id="Layer_1-2" data-name="Layer 1">
    <g class="cls-2">
      <g>
        <path d="M217.62,213.52c0,43-20.8,64-58.2,64-40,0-54-27-54-49.2,0-8.2,2.4-17,7-23.4h28.6c-5,8-6.2,16.6-6.2,21.2,0,12,6.6,25.4,24.2,25.4,20.6,0,27.6-13,27.6-38v-78.4h31v78.4Z"/>
        <path d="M313.42,172.72h29.8v113.4c0,29.8-17.4,38.2-35.6,38.2-24.2,0-34.2-15.4-34.2-30.6,0-1.6.4-4,1.2-5.6h23.6c-.2.8-.2,2.8-.2,3.4,0,4.8,2,9,7.8,9s7.6-5,7.6-9.6v-118.2ZM328.42,128.52c10.6,0,19,6.8,19,17s-8.4,16.6-19,16.6-18.8-6.8-18.8-16.6,7.8-17,18.8-17Z"/>
      </g>
    </g>
  </g>
</svg>