<?xml version="1.0" encoding="UTF-8"?>
<svg id="Layer_2" data-name="Layer 2" xmlns="http://www.w3.org/2000/svg" xmlns:xlink="http://www.w3.org/1999/xlink" viewBox="0 0 452.84 452.84">
  <defs>
    <style>
      .cls-1 {
        fill: none;
      }

      .cls-2 {
        clip-path: url(#clippath);
      }
    </style>
    <clipPath id="clippath">
      <rect class="cls-1" width="452.84" height="452.84"/>
    </clipPath>
  </defs>
  <g id="Layer_1-2" data-name="Layer 1">
    <g class="cls-2">
      <g>
        <path d="M96.02,294.82l-35-83.6-7.4,85.2h-31l13-140h31.2l39.2,94.2,39.2-94.2h31.2l13,140h-31l-7.4-85.2-35,83.6h-20Z"/>
        <path d="M366.22,241.42v55h-29.6v-55.2c0-14-3.8-25-17.2-25s-17,11.4-17,25.2v55h-29.8v-102.6h29.8v14c6.6-10.2,16.2-16.2,27.4-16.2,15.8,0,26,6.8,31.4,17.2,8-15,22.4-17.2,32.4-17.2,28.8,0,36.6,22.8,36.6,49v55.8h-29.8v-55.2c0-14-3.8-25-17.2-25s-17,11.4-17,25.2Z"/>
      </g>
    </g>
  </g>
</svg>