<?xml version="1.0" encoding="UTF-8"?>
<svg id="Layer_2" data-name="Layer 2" xmlns="http://www.w3.org/2000/svg" xmlns:xlink="http://www.w3.org/1999/xlink" viewBox="0 0 452.84 452.84">
  <defs>
    <style>
      .cls-1 {
        fill: none;
      }

      .cls-2 {
        clip-path: url(#clippath);
      }
    </style>
    <clipPath id="clippath">
      <rect class="cls-1" width="452.84" height="452.84"/>
    </clipPath>
  </defs>
  <g id="Layer_1-2" data-name="Layer 1">
    <g class="cls-2">
      <g>
        <path d="M133.02,154.22c40,0,72.6,32.4,72.6,72.2s-32.6,72.2-72.6,72.2-72.8-32.4-72.8-72.2,32.6-72.2,72.8-72.2ZM133.02,270.22c23.2,0,42-18.2,42-43.8s-18.8-43.8-42-43.8-42.2,18.2-42.2,43.8,19,43.8,42.2,43.8Z"/>
        <path d="M336.22,191.62c29.8,0,56.4,21.6,56.4,53.4s-26.6,53.6-56.4,53.6-56.4-21.4-56.4-53.6,26.6-53.4,56.4-53.4ZM336.22,273.02c15,0,27.4-12,27.4-28s-12.4-27.8-27.4-27.8-27.4,11.8-27.4,27.8,12.8,28,27.4,28Z"/>
      </g>
    </g>
  </g>
</svg>