<?xml version="1.0" encoding="UTF-8"?>
<svg id="Layer_2" data-name="Layer 2" xmlns="http://www.w3.org/2000/svg" xmlns:xlink="http://www.w3.org/1999/xlink" viewBox="0 0 452.84 452.84">
  <defs>
    <style>
      .cls-1 {
        fill: none;
      }

      .cls-2 {
        clip-path: url(#clippath);
      }
    </style>
    <clipPath id="clippath">
      <rect class="cls-1" width="452.84" height="452.84"/>
    </clipPath>
  </defs>
  <g id="Layer_1-2" data-name="Layer 1">
    <g class="cls-2">
      <g>
        <path d="M202.72,304.32c-7.4,5-19,11-35.2,11-27.4,0-45.6-18.2-46.6-40-33.8-6.4-60.8-35.8-60.8-71.2,0-39.8,33-72.2,73.2-72.2s73,32.4,73,72.2c0,33.2-25,62.2-56,70.2.6,10.6,8.4,15.6,19.6,15.6,6.2,0,16.2-2.8,23.2-7.4l9.6,21.8ZM133.32,247.92c23.2,0,42-18.2,42-43.8s-18.8-43.8-42-43.8-42.2,18.2-42.2,43.8,19,43.8,42.2,43.8Z"/>
        <path d="M362.92,320.92v-60.8c-7,9.4-19,16.2-32.8,16.2-32,0-49.4-24.2-49.4-53s18.8-54,50-54c15.2,0,24.8,6.6,32.2,17.2v-15h29.8v149.4h-29.8ZM336.12,252.12c16.2,0,27.6-11.4,27.6-30.6s-12.2-28-26.8-28c-16.6,0-26.4,13-26.4,29.6s9.2,29,25.6,29Z"/>
      </g>
    </g>
  </g>
</svg>