<?xml version="1.0" encoding="UTF-8"?>
<svg id="Layer_2" data-name="Layer 2" xmlns="http://www.w3.org/2000/svg" xmlns:xlink="http://www.w3.org/1999/xlink" viewBox="0 0 452.84 452.84">
  <defs>
    <style>
      .cls-1 {
        fill: none;
      }

      .cls-2 {
        clip-path: url(#clippath);
      }
    </style>
    <clipPath id="clippath">
      <rect class="cls-1" width="452.84" height="452.84"/>
    </clipPath>
  </defs>
  <g id="Layer_1-2" data-name="Layer 1">
    <g class="cls-2">
      <path d="M207.62,249.82c0-12.6.2-19.4,14.6-28.4,13.6-8.6,21.6-14.8,21.6-25.8,0-10.4-8.4-16-18.2-16s-17.8,5.2-17.8,14.6c0,2.4.4,4.6,2.6,10h-28.4c-2.4-4.6-2.8-10-2.8-13,0-16.2,14.6-37,46.4-37,28,0,48,16,48,40.8,0,18.2-11,30.8-35.2,45.8-3,1.8-3,5-3,7.2v1.8h-27.8ZM221.62,263.82c10.6,0,19,7.4,19,17.6s-8.4,17.2-19,17.2-18.8-7.4-18.8-17.2,7.8-17.6,18.8-17.6Z"/>
    </g>
  </g>
</svg>