<?xml version="1.0" encoding="UTF-8"?>
<svg id="Layer_2" data-name="Layer 2" xmlns="http://www.w3.org/2000/svg" xmlns:xlink="http://www.w3.org/1999/xlink" viewBox="0 0 452.84 452.84">
  <defs>
    <style>
      .cls-1 {
        fill: none;
      }

      .cls-2 {
        clip-path: url(#clippath);
      }
    </style>
    <clipPath id="clippath">
      <rect class="cls-1" width="452.84" height="452.84"/>
    </clipPath>
  </defs>
  <g id="Layer_1-2" data-name="Layer 1">
    <g class="cls-2">
      <g>
        <path d="M172.52,243.32c3.8,15,9.2,26.8,23.2,26.8,4.8,0,10.4-2.2,14.2-6l11,21.4c-9,7.2-16.8,12-31.2,12-33.2,0-43.4-37-45-52h-18.6v49.8h-30.8v-140h62.2c28.8,0,44.6,21.2,44.6,46,0,20-11.2,36.2-29.6,42ZM153.52,220.72c11.2,0,17.6-7.8,17.6-19.6s-6.4-19.8-17.6-19.8h-27.4v39.4h27.4Z"/>
        <path d="M321.72,215.12c3.2-18.6,19.4-24.6,28.2-24.6,3.4,0,4.4.2,7.6.8v29.4c-4.2-1-9.6-1.4-12.6-1.4-11.2,0-22.4,6.6-22.4,20.2v55.8h-29.8v-102.6h29v22.4Z"/>
      </g>
    </g>
  </g>
</svg>