<?xml version="1.0" encoding="UTF-8"?>
<svg id="Layer_2" data-name="Layer 2" xmlns="http://www.w3.org/2000/svg" xmlns:xlink="http://www.w3.org/1999/xlink" viewBox="0 0 452.84 452.84">
  <defs>
    <style>
      .cls-1 {
        fill: none;
      }

      .cls-2 {
        clip-path: url(#clippath);
      }
    </style>
    <clipPath id="clippath">
      <rect class="cls-1" width="452.84" height="452.84"/>
    </clipPath>
  </defs>
  <g id="Layer_1-2" data-name="Layer 1">
    <g class="cls-2">
      <path d="M200.12,217.22h.8c6.4-7.8,18-14,31-14,25,0,51.4,17.4,51.4,47.2,0,27.8-22.4,48.2-55.2,48.2-36,0-58.6-28.2-58.6-69s20.8-75.4,61.8-75.4c19.4,0,37.6,7.2,48.8,20.6l-18.2,16.6c-9.8-10.2-22.6-11.4-29.4-11.4-13.6,0-30.8,11.6-32.4,37.2ZM201.92,249.02c0,12,9,24.4,25.4,24.4,13.8,0,25.8-10,25.8-23.2s-9.4-23.4-25.2-23.4c-18.2,0-26,11-26,22.2Z"/>
    </g>
  </g>
</svg>