<?xml version="1.0" encoding="UTF-8"?>
<svg id="Layer_2" data-name="Layer 2" xmlns="http://www.w3.org/2000/svg" xmlns:xlink="http://www.w3.org/1999/xlink" viewBox="0 0 452.84 452.84">
  <defs>
    <style>
      .cls-1 {
        fill: none;
      }

      .cls-2 {
        clip-path: url(#clippath);
      }
    </style>
    <clipPath id="clippath">
      <rect class="cls-1" width="452.84" height="452.84"/>
    </clipPath>
  </defs>
  <g id="Layer_1-2" data-name="Layer 1">
    <g class="cls-2">
      <g>
        <path d="M210.02,155.32v26h-39.8v114h-30.6v-114h-39.4v-26h109.8Z"/>
        <path d="M312.62,192.72h28.4v23.4h-28.4v48c0,4.6,1.8,9,7.6,9s7.8-4.8,7.8-9.6c0-3-.8-7.2-1.4-8.8h23.6c1.8,3.8,2.4,8.4,2.4,12.2,0,15.2-10,30.6-34.2,30.6-18.2,0-35.6-6.6-35.6-36.2v-45.2h-15.4v-23.4h17.6l4.6-25.2h23v25.2Z"/>
      </g>
    </g>
  </g>
</svg>