<?xml version="1.0" encoding="UTF-8"?>
<svg id="Layer_2" data-name="Layer 2" xmlns="http://www.w3.org/2000/svg" xmlns:xlink="http://www.w3.org/1999/xlink" viewBox="0 0 452.84 452.84">
  <defs>
    <style>
      .cls-1 {
        fill: none;
      }

      .cls-2 {
        clip-path: url(#clippath);
      }
    </style>
    <clipPath id="clippath">
      <rect class="cls-1" width="452.84" height="452.84"/>
    </clipPath>
  </defs>
  <g id="Layer_1-2" data-name="Layer 1">
    <g class="cls-2">
      <g>
        <path d="M86.92,315.72v-140h93v24.6h-62v34.4h53.8v24.6h-53.8v31.8h62v24.6h-93ZM161.12,134.92l-27.2,30.8h-21.6l17.4-30.8h31.4Z"/>
        <path d="M360.32,297.72c-14.4,16-34,20.2-47.8,20.2-38,0-58.8-23.8-58.8-53s23.6-54,56.6-54c28.2,0,55.6,19.6,55.6,60.4h-82.6c.6,12.8,12.2,22.2,31.4,22.2,10.6,0,21.2-5.2,28.4-12.2l17.2,16.4ZM283.92,253.32h51.4c-2-13.2-15.4-18.2-25.4-18.2s-22.2,4.4-26,18.2ZM345.72,165.72l-29.6,34.6h-21.6l19.8-34.6h31.4Z"/>
      </g>
    </g>
  </g>
</svg>