<?xml version="1.0" encoding="UTF-8"?>
<svg id="Layer_2" data-name="Layer 2" xmlns="http://www.w3.org/2000/svg" xmlns:xlink="http://www.w3.org/1999/xlink" viewBox="0 0 452.84 452.84">
  <defs>
    <style>
      .cls-1 {
        fill: none;
      }

      .cls-2 {
        clip-path: url(#clippath);
      }
    </style>
    <clipPath id="clippath">
      <rect class="cls-1" width="452.84" height="452.84"/>
    </clipPath>
  </defs>
  <g id="Layer_1-2" data-name="Layer 1">
    <g class="cls-2">
      <path d="M242.42,283.82c-9.4,9.6-24,14.8-40.6,14.8-27.8,0-51-15-51-40.6,0-20.8,16.2-34,32.6-42-6.6-8-12-17.8-12-28.8,0-23.6,25-33,41-33,20.2,0,36.8,15.4,36.8,33.2,0,14.4-11,26.8-25.2,34.8l17.2,19.2,10.8-15.2c1.4-1.8,2.6-4.2,4-6h27.2v6l-25,35,6.4,6.8c3.8,3.4,7.8,5.2,10.8,5.2,4,0,10.6-1.2,16.4-7.4l10.2,19.8c-7.4,7.4-16.4,13-28.4,13-13,0-22.4-6-30.2-13.8l-1-1ZM200.22,235.02c-10.6,3.8-19.6,11.8-19.6,21.6,0,10.4,9.6,17.6,22.2,17.6,8.8,0,16-4,22.2-11.2l-24.8-28ZM208.22,205.62c8.8-5.4,13.8-11,13.8-17.2,0-5.4-3.4-11.6-11.2-11.6-7,0-12,5.6-12,12,0,5.4,3.8,10.6,9.4,16.8Z"/>
    </g>
  </g>
</svg>