<?xml version="1.0" encoding="UTF-8"?>
<svg id="Layer_2" data-name="Layer 2" xmlns="http://www.w3.org/2000/svg" xmlns:xlink="http://www.w3.org/1999/xlink" viewBox="0 0 452.84 452.84">
  <defs>
    <style>
      .cls-1 {
        fill: none;
      }

      .cls-2 {
        clip-path: url(#clippath);
      }
    </style>
    <clipPath id="clippath">
      <rect class="cls-1" width="452.84" height="452.84"/>
    </clipPath>
  </defs>
  <g id="Layer_1-2" data-name="Layer 1">
    <g class="cls-2">
      <path d="M168.62,253.62c0-12.4,10-27.4,24.8-32.2-11.4-4.4-19.2-16.4-19.2-26.8,0-25,21.8-40.4,52.2-40.4s52.2,15.4,52.2,40.4c0,10.4-7.8,22.4-19.2,26.8,14.8,4.8,24.8,19.8,24.8,32.2,0,28-24,45-57.8,45s-57.8-17-57.8-45ZM199.22,253.62c0,11,10.4,19.6,27.2,19.6s27.2-8.6,27.2-19.6c0-10.2-8.2-20-26.4-20-19.2-.6-28,9.6-28,20ZM226.62,212.82c15.2,0,21.4-10,21.4-18.2s-8-15.8-21.6-15.8-21.6,7.2-21.6,15.8,6.2,18.2,21.4,18.2h.4Z"/>
    </g>
  </g>
</svg>