<?xml version="1.0" encoding="UTF-8"?>
<svg id="Layer_2" data-name="Layer 2" xmlns="http://www.w3.org/2000/svg" xmlns:xlink="http://www.w3.org/1999/xlink" viewBox="0 0 452.84 452.84">
  <defs>
    <style>
      .cls-1 {
        fill: none;
      }

      .cls-2 {
        clip-path: url(#clippath);
      }
    </style>
    <clipPath id="clippath">
      <rect class="cls-1" width="452.84" height="452.84"/>
    </clipPath>
  </defs>
  <g id="Layer_1-2" data-name="Layer 1">
    <g class="cls-2">
      <path d="M251.32,247.12c0-10.6-9.2-21.6-26-21.6-9.4,0-21.2,3-28.4,10.2l-20.2-8,4.6-72.4h90.4v24.6h-64l-2,29.6h1c8.2-6.2,19.6-7.4,26.8-7.4,25.6,0,48.2,20.2,48.2,45,0,29.8-21.4,50.4-58.4,50.4-20.8,0-39.4-5-52.2-16.8l14.8-19c16.6,9.6,28,10.6,36.2,10.6,18.8,0,29.2-11.8,29.2-25.2Z"/>
    </g>
  </g>
</svg>