<?xml version="1.0" encoding="UTF-8"?>
<svg id="Layer_2" data-name="Layer 2" xmlns="http://www.w3.org/2000/svg" xmlns:xlink="http://www.w3.org/1999/xlink" viewBox="0 0 452.84 452.84">
  <defs>
    <style>
      .cls-1 {
        fill: none;
      }

      .cls-2 {
        clip-path: url(#clippath);
      }
    </style>
    <clipPath id="clippath">
      <rect class="cls-1" width="452.84" height="452.84"/>
    </clipPath>
  </defs>
  <g id="Layer_1-2" data-name="Layer 1">
    <g class="cls-2">
      <g>
        <path d="M143.12,130.82c21.4,0,36,7,50.4,18l-15.4,23c-7.6-6-20.2-12.6-34-12.6-34.2,0-45.6,24.2-45.6,44.2,0,25.2,17.8,43.4,43.2,43.4,8.6,0,18.4-1.4,25.8-5.2v-20h-35.4v-24.8h64.4v57c-20.8,18.6-41.8,21.4-54.6,21.4-43,0-74.4-32.6-74.4-72.2s28.6-72.2,75.6-72.2Z"/>
        <path d="M385.32,265.82c0,40.6-26.4,56.2-55.6,56.2-23,0-38.2-5.6-48.6-14.2l11.8-23.2c5.8,5.2,19.8,11.6,30.8,11.6,15.4,0,31.8-4.6,31.8-27v-11.2c-7.4,10.6-17,17.2-32.2,17.2-31.2,0-50-24-50-54s17.4-53,49.4-53c13.8,0,25.8,6.8,32.8,16.2v-14h29.8v95.4ZM329.52,251.02c14.6,0,26.8-9.6,26.8-28s-11.4-30.6-27.6-30.6-25.6,13.2-25.6,29c0,16.6,9.8,29.6,26.4,29.6Z"/>
      </g>
    </g>
  </g>
</svg>