<?xml version="1.0" encoding="UTF-8"?>
<svg id="Layer_2" data-name="Layer 2" xmlns="http://www.w3.org/2000/svg" xmlns:xlink="http://www.w3.org/1999/xlink" viewBox="0 0 452.84 452.84">
  <defs>
    <style>
      .cls-1 {
        fill: none;
      }

      .cls-2 {
        clip-path: url(#clippath);
      }
    </style>
    <clipPath id="clippath">
      <rect class="cls-1" width="452.84" height="452.84"/>
    </clipPath>
  </defs>
  <g id="Layer_1-2" data-name="Layer 1">
    <g class="cls-2">
      <path d="M171.82,154.22c22.4,0,39.2,16.4,39.2,37.6s-16.8,37.4-39.2,37.4-39.2-16.4-39.2-37.4,17-37.6,39.2-37.6ZM171.82,209.22c9,0,16.8-6.8,16.8-17.4s-7.8-17.8-16.8-17.8-16.4,6.8-16.4,17.8,7.8,17.4,16.4,17.4ZM253.42,156.42h21l-77.6,140h-21.2l77.8-140ZM281.02,223.62c22.4,0,39.2,16.4,39.2,37.6s-16.8,37.4-39.2,37.4-39.2-16.4-39.2-37.4,17-37.6,39.2-37.6ZM281.02,278.62c9,0,16.8-6.8,16.8-17.4s-7.8-17.8-16.8-17.8-16.4,6.8-16.4,17.8,7.8,17.4,16.4,17.4Z"/>
    </g>
  </g>
</svg>