<?xml version="1.0" encoding="UTF-8"?>
<svg id="Layer_2" data-name="Layer 2" xmlns="http://www.w3.org/2000/svg" xmlns:xlink="http://www.w3.org/1999/xlink" viewBox="0 0 452.84 452.84">
  <defs>
    <style>
      .cls-1 {
        fill: none;
      }

      .cls-2 {
        clip-path: url(#clippath);
      }
    </style>
    <clipPath id="clippath">
      <rect class="cls-1" width="452.84" height="452.84"/>
    </clipPath>
  </defs>
  <g id="Layer_1-2" data-name="Layer 1">
    <g class="cls-2">
      <g>
        <path d="M123.02,252.02c3.8,12.6,12.4,19.2,25.4,19.2,11.2,0,21-4,21-14.4,0-5.4-2.8-10.4-16.2-15l-15.2-5.2c-31-10.6-35.6-30-35.6-41.6,0-25.2,19.8-40.8,47.2-40.8,21.6,0,38.2,10.4,46.8,30.6l-25.2,12.6c-5.8-14.2-16-15.8-21.6-15.8-9.6,0-17,3.6-17,13,0,3.6,1.2,10.2,15,15l14.8,5.2c31.2,9.6,37.2,28.8,37.2,41.4,0,29.4-25.6,42.4-50.2,42.4-26.6,0-51.4-15.2-54-41.2l27.6-5.4Z"/>
        <path d="M294.02,260.22c3.2,11.8,13.2,15.4,21.6,15.4,6.6,0,13.4-2.4,13.4-7.8,0-3.4-2-5.6-7.6-7.8l-18-7.6c-24.4-8.4-25.6-24.8-25.6-29.4,0-20.6,18.4-31.4,40.2-31.4,11.6,0,27.4,3,37,21.6l-23,10.6c-2.8-8.2-9.8-9.8-14.6-9.8-5.6,0-11.4,3-11.4,8.4,0,4.6,4.2,6.6,9.6,8.8l15.4,6c24.2,7,26.4,22.8,26.4,29.6,0,21-19.4,31.8-42,31.8-15.2,0-36-4.8-43-26.2l21.6-12.2Z"/>
      </g>
    </g>
  </g>
</svg>