<?xml version="1.0" encoding="UTF-8"?>
<svg id="Layer_2" data-name="Layer 2" xmlns="http://www.w3.org/2000/svg" xmlns:xlink="http://www.w3.org/1999/xlink" viewBox="0 0 452.84 452.84">
  <defs>
    <style>
      .cls-1 {
        fill: none;
      }

      .cls-2 {
        clip-path: url(#clippath);
      }
    </style>
    <clipPath id="clippath">
      <rect class="cls-1" width="452.84" height="452.84"/>
    </clipPath>
  </defs>
  <g id="Layer_1-2" data-name="Layer 1">
    <g class="cls-2">
      <g>
        <path d="M192.62,155.32v87c0,36-26.6,55.2-58,55.2s-57.8-19.2-57.8-55.2v-87h31v87c0,19.4,12.4,29.2,26.8,29.2s27-9.8,27-29.2v-87h31Z"/>
        <path d="M376.02,295.32h-29.8v-14c-8.6,12-19.2,16.2-31.8,16.2-28.8,0-36.6-23-36.6-49v-55.8h29.8v55.2c0,14.2,5.2,25,19,25s19.6-11,19.6-25.2v-55h29.8v102.6Z"/>
      </g>
    </g>
  </g>
</svg>