<?xml version="1.0" encoding="UTF-8" standalone="no"?>
<!DOCTYPE svg PUBLIC "-//W3C//DTD SVG 1.1//EN" "http://www.w3.org/Graphics/SVG/1.1/DTD/svg11.dtd">
<svg width="100%" height="100%" viewBox="0 0 3734 2248" version="1.1" xmlns="http://www.w3.org/2000/svg" xmlns:xlink="http://www.w3.org/1999/xlink" xml:space="preserve" xmlns:serif="http://www.serif.com/" style="fill-rule:evenodd;clip-rule:evenodd;stroke-linejoin:round;stroke-miterlimit:2;">
    <g transform="matrix(1,0,0,1,-10601.5,-710.083)">
        <g id="Artboard3" transform="matrix(1,0,0,1,-0.963255,0)">
            <rect x="10337" y="0" width="4960.63" height="3507.87" style="fill:none;"/>
            <g transform="matrix(1,0,0,1,5168.96,0)">
                <path d="M5684.75,1631.33C5884.75,1631.33 6009.75,1506.33 6009.75,1307.58L6009.75,735.083L5812.25,735.083L5812.25,1318.83C5812.25,1406.33 5761,1452.58 5687.25,1452.58C5636,1452.58 5594.75,1430.08 5564.75,1388.83L5433.5,1515.08C5492.25,1588.83 5573.5,1631.33 5684.75,1631.33Z" style="fill:rgb(239,241,243);fill-rule:nonzero;"/>
            </g>
            <g transform="matrix(1,0,0,1,5168.96,0)">
                <path d="M6339.75,1630.08C6407.25,1630.08 6466,1606.33 6507.25,1567.58L6507.25,1617.58L6694.75,1617.58L6694.75,1010.08L6507.25,1010.08L6507.25,1060.08C6466,1021.33 6407.25,997.583 6339.75,997.583C6172.25,997.583 6048.5,1132.58 6048.5,1313.83C6048.5,1495.08 6172.25,1630.08 6339.75,1630.08ZM6378.5,1457.58C6299.75,1457.58 6242.25,1397.58 6242.25,1313.83C6242.25,1230.08 6299.75,1170.08 6379.75,1170.08C6459.75,1170.08 6514.75,1228.83 6514.75,1313.83C6514.75,1398.83 6459.75,1457.58 6378.5,1457.58Z" style="fill:rgb(239,241,243);fill-rule:nonzero;"/>
            </g>
            <g transform="matrix(1,0,0,1,5168.96,0)">
                <path d="M7061,1631.33C7158.5,1631.33 7238.5,1596.33 7302.25,1530.08L7181,1407.58C7152.25,1440.08 7114.75,1457.58 7063.5,1457.58C6982.25,1457.58 6922.25,1398.83 6922.25,1312.58C6922.25,1227.58 6982.25,1170.08 7063.5,1170.08C7112.25,1170.08 7149.75,1185.08 7177.25,1216.33L7299.75,1093.83C7238.5,1030.08 7157.25,996.333 7063.5,996.333C6872.25,996.333 6727.25,1132.58 6727.25,1313.83C6727.25,1495.08 6872.25,1631.33 7061,1631.33Z" style="fill:rgb(239,241,243);fill-rule:nonzero;"/>
            </g>
            <g transform="matrix(1,0,0,1,5168.96,0)">
                <path d="M7602.25,1631.33C7792.25,1631.33 7934.75,1493.83 7934.75,1312.58C7934.75,1132.58 7791,996.333 7602.25,996.333C7412.25,996.333 7269.75,1132.58 7269.75,1312.58C7269.75,1492.58 7413.5,1631.33 7602.25,1631.33ZM7602.25,1457.58C7521,1457.58 7464.75,1398.83 7464.75,1313.83C7464.75,1228.83 7521,1170.08 7602.25,1170.08C7683.5,1170.08 7739.75,1227.58 7739.75,1312.58C7739.75,1398.83 7684.75,1457.58 7602.25,1457.58Z" style="fill:rgb(239,241,243);fill-rule:nonzero;"/>
            </g>
            <g transform="matrix(1,0,0,1,5168.96,0)">
                <path d="M7967.25,1617.58L8156,1617.58L8156,1573.83C8197.25,1608.83 8254.75,1630.08 8317.25,1630.08C8489.75,1630.08 8613.5,1495.08 8613.5,1313.83C8613.5,1132.58 8489.75,997.583 8317.25,997.583C8256,997.583 8199.75,1016.33 8158.5,1048.83L8158.5,710.083L7967.25,710.083L7967.25,1617.58ZM8283.5,1457.58C8202.25,1457.58 8147.25,1398.83 8147.25,1313.83C8147.25,1228.83 8202.25,1170.08 8283.5,1170.08C8363.5,1170.08 8419.75,1230.08 8419.75,1313.83C8419.75,1397.58 8363.5,1457.58 8283.5,1457.58Z" style="fill:rgb(239,241,243);fill-rule:nonzero;"/>
            </g>
            <g transform="matrix(1,0,0,1,5209.21,0)">
                <path d="M6503,2257.79C6490.64,2252.6 6476.33,2249.67 6459.75,2249.67C6396,2249.67 6356,2288.42 6356,2367.17L6356,2700.92L6164.75,2700.92L6164.75,2093.42L6356,2093.42L6356,2152C6392.93,2115.07 6441.21,2095.17 6503,2093.38L6503,2257.79Z" style="fill:rgb(239,241,243);fill-rule:nonzero;"/>
            </g>
            <g transform="matrix(1,0,0,1,5171.46,0)">
                <path d="M6662.25,2957.17L6858.5,2957.17L6966,2703.42L7226,2093.42L7019.75,2093.42L6896,2463.42L6774.75,2093.42L6568.5,2093.42L6799.75,2659.67L6662.25,2957.17Z" style="fill:rgb(239,241,243);fill-rule:nonzero;"/>
            </g>
            <g transform="matrix(1,0,0,1,5176.96,0)">
                <path d="M7467.25,2713.42C7534.75,2713.42 7593.5,2689.67 7634.75,2650.92L7634.75,2700.92L7822.25,2700.92L7822.25,2093.42L7634.75,2093.42L7634.75,2143.42C7593.5,2104.67 7534.75,2080.92 7467.25,2080.92C7299.75,2080.92 7176,2215.92 7176,2397.17C7176,2578.42 7299.75,2713.42 7467.25,2713.42ZM7506,2540.92C7427.25,2540.92 7369.75,2480.92 7369.75,2397.17C7369.75,2313.42 7427.25,2253.42 7507.25,2253.42C7587.25,2253.42 7642.25,2312.17 7642.25,2397.17C7642.25,2482.17 7587.25,2540.92 7506,2540.92Z" style="fill:rgb(239,241,243);fill-rule:nonzero;"/>
            </g>
            <g transform="matrix(1,0,0,1,5151.71,0)">
                <path d="M7894.75,2700.92L8086,2700.92L8086,2354.67C8086,2290.92 8131,2248.42 8192.25,2248.42C8252.25,2248.42 8296,2290.92 8296,2354.67L8296,2700.92L8487.25,2700.92L8487.25,2312.17C8487.25,2187.17 8389.75,2080.92 8256,2080.92C8188.5,2080.92 8128.5,2103.42 8086,2142.17L8086,2093.42L7894.75,2093.42L7894.75,2700.92Z" style="fill:rgb(239,241,243);fill-rule:nonzero;"/>
            </g>
            <g transform="matrix(1,0,0,1,5187.46,0)">
                <path d="M8626,2700.92L8817.25,2700.92L8817.25,2255.92L8954.75,2255.92L8954.75,2093.42L8817.25,2093.42L8817.25,1842.17L8626,1842.17L8626,2093.42L8488.5,2093.42L8488.5,2255.92L8626,2255.92L8626,2700.92Z" style="fill:rgb(239,241,243);fill-rule:nonzero;"/>
            </g>
            <g transform="matrix(1,0,0,1,5168.96,0)">
                <path d="M9053.5,2714.67C9119.75,2714.67 9167.25,2664.67 9167.25,2599.67C9167.25,2534.67 9119.75,2483.42 9053.5,2483.42C8987.25,2483.42 8939.75,2534.67 8939.75,2599.67C8939.75,2664.67 8987.25,2714.67 9053.5,2714.67Z" style="fill:rgb(239,241,243);fill-rule:nonzero;"/>
            </g>
            <g transform="matrix(1,0,0,1,5151.46,541.667)">
                <path d="M5501,2159.25L5877.25,2159.25C6063.5,2159.25 6176,2048 6176,1903C6176,1806.75 6127.25,1731.75 6037.25,1688C6108.5,1649.25 6146,1586.75 6146,1508C6146,1380.5 6049.75,1276.75 5879.75,1276.75L5501,1276.75L5501,2159.25ZM5842.25,1429.25C5907.25,1429.25 5951,1461.75 5951,1526.75C5951,1593 5906,1625.5 5842.25,1625.5L5694.75,1625.5L5694.75,1429.25L5842.25,1429.25ZM5858.5,1774.25C5934.75,1774.25 5981,1824.25 5981,1890.5C5981,1956.75 5934.75,2006.75 5858.5,2006.75L5694.75,2006.75L5694.75,1774.25L5858.5,1774.25Z" style="fill:rgb(239,241,243);fill-rule:nonzero;"/>
            </g>
        </g>
    </g>
</svg>
