<?xml version="1.0" encoding="UTF-8"?>
<svg id="Layer_1" data-name="Layer 1" xmlns="http://www.w3.org/2000/svg" viewBox="0 0 2634.45 246.07">
  <defs>
    <style>
      .cls-1 {
        fill: #0f89fa;
        stroke-width: 0px;
      }
    </style>
  </defs>
  <path class="cls-1" d="M0,57.37C48.24,21.33,104.82-5.2,165.52.86c71.75,7.17,89.66,53.92,162.07,56.5,77.76,2.77,84.53-50.17,167.24-56.5,100.06-7.66,122.28,67.37,218.96,56.5C790.9,48.7,798.91-1.51,870.68.86c70.08,2.32,75.88,50.64,146.55,56.5,83.23,6.9,100.65-58.01,189.65-56.5,78.45,1.33,82.79,52.05,163.79,56.5,91.74,5.04,107.58-58.87,201.72-56.5,85.51,2.15,90.85,55.32,175.86,56.5,92.08,1.28,106.4-60.82,194.83-56.5,81.27,3.97,88.9,57.39,167.24,56.5,78.91-.9,88.35-55.28,167.24-56.5,74.68-1.15,92.88,47.17,170.69,56.5,41.65,4.99,103.98-.75,186.2-56.5v245.21H0V57.37Z"/>
</svg>