<?xml version="1.0" encoding="UTF-8"?>
<svg id="Layer_2" data-name="Layer 2" xmlns="http://www.w3.org/2000/svg" xmlns:xlink="http://www.w3.org/1999/xlink" viewBox="0 0 2214 2214">
  <defs>
    <style>
      .cls-1 {
        fill: none;
      }

      .cls-2, .cls-3, .cls-4, .cls-5, .cls-6 {
        fill: #0d0c1d;
      }

      .cls-3 {
        opacity: .6;
      }

      .cls-4 {
        opacity: .2;
      }

      .cls-5 {
        opacity: .8;
      }

      .cls-6 {
        opacity: .4;
      }

      .cls-7 {
        clip-path: url(#clippath);
      }
    </style>
    <clipPath id="clippath">
      <rect class="cls-1" width="2214" height="2214"/>
    </clipPath>
  </defs>
  <g id="Layer_1-2" data-name="Layer 1">
    <g class="cls-7">
      <g>
        <path class="cls-4" d="M334.83-2246.49s1.75,4092.76,4075.78,4092.76v500.98H-81.24l-16.98-4594.48,433.05.74Z"/>
        <path class="cls-6" d="M257.18-1337.43s1.4,3272.05,3258.47,3272.05v400.52H-75.45l-13.58-3673.16,346.21.59Z"/>
        <path class="cls-3" d="M201.95-864.16s1.22,2857.85,2845.99,2857.85v349.82H-88.58l-11.86-3208.19,302.39.52Z"/>
        <path class="cls-5" d="M178.21-517.6s1.09,2536.71,2526.18,2536.71v310.51H-79.68l-10.53-2847.68,268.41.46Z"/>
        <path class="cls-2" d="M141.75-110.05s.93,2169,2160,2169v265.5H-78.75L-87.75-110.45l229.5.39Z"/>
      </g>
    </g>
  </g>
</svg>