<?xml version="1.0" encoding="UTF-8"?>
<svg id="Layer_2" data-name="Layer 2" xmlns="http://www.w3.org/2000/svg" xmlns:xlink="http://www.w3.org/1999/xlink" viewBox="0 0 2214 2214">
  <defs>
    <style>
      .cls-1 {
        fill: none;
      }

      .cls-2, .cls-3, .cls-4, .cls-5, .cls-6 {
        fill: #0d0c1d;
      }

      .cls-3 {
        opacity: .6;
      }

      .cls-4 {
        opacity: .2;
      }

      .cls-5 {
        opacity: .8;
      }

      .cls-6 {
        opacity: .4;
      }

      .cls-7 {
        clip-path: url(#clippath);
      }
    </style>
    <clipPath id="clippath">
      <rect class="cls-1" width="2214" height="2214"/>
    </clipPath>
  </defs>
  <g id="Layer_1-2" data-name="Layer 1">
    <g class="cls-7">
      <g>
        <path class="cls-4" d="M-124.72,44.47C100.31.18,255.39,617.79,790.6,677.5c287.4,32.06,355.97-133.39,721.42-173.94,388.27-43.08,994.31,67.85,1274.61,507.56,285.69,448.17,131.18,1078.12-159.68,1437.15-592.27,731.07-2081.99,748.65-2768.79-45.62C-865.9,1565.27-452.48,108.98-124.72,44.47Z"/>
        <path class="cls-6" d="M-589.51,483.6c199.35-107.76,518.7,386.77,943.84,268.04,245.66-68.61,230.73-259.34,453.39-305.11,345.74-71.06,483.64,367.88,1097.82,553.19,396.87,119.74,499.77-15.12,721.42,131.17,348.41,229.94,517.43,842.5,310.81,1228.99-334.79,626.24-1533.95,430.9-1833.5,382.1-359.36-58.54-975.63-158.93-1402.93-678.65-480.47-584.4-521.46-1455.06-290.85-1579.72Z"/>
        <path class="cls-3" d="M-227.38,120.51c135-12.09,69.12,785.54,589.31,1079.76,541.51,306.28,1055.98-281.08,1840.15,34.22,266.96,107.34,662.72,358.51,661.54,669.15-1.07,282.15-332.75,486.55-456.24,562.69-647.16,399.04-1901.11,522.78-2543.52-277.54C-787.18,1377.69-394.38,135.46-227.38,120.51Z"/>
        <path class="cls-5" d="M-649.4,1120.43c144.88,190.27,345.63,384.73,577.9,376.4,285.48-10.25,403.94-319.16,646.34-285.15,238.48,33.46,217.4,345.61,482.85,475.25,426.79,208.43,908.79-389.63,1235.64-197.7,210.56,123.64,284.1,532.48,148.28,790.81-279.32,531.24-1424.12,388.02-1992.23,228.12-363.15-102.21-951.69-267.87-1117.78-760.39-83.41-247.36-29.16-484.93,19.01-627.33Z"/>
        <path class="cls-2" d="M-288.21,1732.55c96.34-87.32,289.16,135.12,695.76,231.92,467.8,111.37,626.9-84.44,1589.22-114.06,409.9-12.62,572.15,17.03,615.92,114.06,48.01,106.44-57.19,270.39-163.48,364.99-233.31,207.65-517.97,122.25-1056.95,106.46-932.71-27.33-1177.77,196.25-1459.96-38.02-238.02-197.61-323.28-572.21-220.51-665.35Z"/>
      </g>
    </g>
  </g>
</svg>