<?xml version="1.0" encoding="UTF-8"?>
<svg id="Layer_2" data-name="Layer 2" xmlns="http://www.w3.org/2000/svg" viewBox="0 0 2929.2 728.47">
  <defs>
    <style>
      .cls-1 {
        fill: #f5f1ed;
      }
    </style>
  </defs>
  <g id="Layer_1-2" data-name="Layer 1">
    <g>
      <g>
        <path class="cls-1" d="M709.4,455.99c-30.9,0-57.73-6.41-80.49-19.21-22.77-12.8-40.35-30.99-52.74-54.57-12.41-23.57-18.6-51.22-18.6-82.93s6.6-59.14,19.82-82.31c13.2-23.17,31.3-41.06,54.26-53.65,22.96-12.6,48.88-18.91,77.75-18.91s54.66,6.2,77.43,18.6c22.76,12.41,40.75,30.18,53.96,53.35,13.2,23.17,19.82,50.81,19.82,82.92s-6.2,59.86-18.6,83.23c-12.41,23.38-29.88,41.46-52.44,54.27-22.56,12.8-49.29,19.21-80.17,19.21ZM709.4,443.79c14.22,0,25.61-4.06,34.14-12.19,8.54-8.13,14.73-22.56,18.59-43.29,3.86-20.73,5.8-50,5.8-87.8s-1.93-67.68-5.8-88.41c-3.86-20.73-10.06-35.16-18.59-43.3-8.54-8.12-19.92-12.19-34.14-12.19s-25.72,4.07-34.45,12.19c-8.75,8.14-15.05,22.56-18.9,43.3-3.87,20.73-5.8,50.2-5.8,88.41s1.93,67.07,5.8,87.8c3.85,20.73,10.15,35.16,18.9,43.29,8.74,8.13,20.22,12.19,34.45,12.19Z"/>
        <path class="cls-1" d="M874.75,446.84v-6.1l8.53-2.44c14.22-4.06,21.34-14.02,21.34-29.88v-190.84c0-8.94-1.43-15.55-4.27-19.82-2.85-4.27-8.33-7.21-16.46-8.84l-9.14-2.44v-6.1l104.26-35.36,6.1,6.1,4.88,36.59c14.22-12.6,30.28-22.96,48.17-31.1,17.88-8.12,35.56-12.2,53.05-12.2,26.83,0,47.45,7.32,61.89,21.95,14.42,14.64,21.64,36.99,21.64,67.07v175.6c0,15.85,7.72,25.82,23.17,29.88l5.49,1.83v6.1h-143.89v-6.1l7.93-2.44c14.23-4.47,21.34-14.42,21.34-29.88v-194.5c0-26.01-13.02-39.02-39.02-39.02-17.89,0-37.41,8.95-58.53,26.83v207.31c0,15.85,7.11,25.82,21.34,29.88l5.49,1.83v6.1h-143.28Z"/>
        <path class="cls-1" d="M1340.72,455.99c-23.99,0-45.52-5.39-64.63-16.16-19.11-10.77-34.25-27.44-45.42-49.99-11.19-22.56-16.77-51.52-16.77-86.89s6.3-65.33,18.91-88.72c12.59-23.37,29.26-40.85,49.99-52.43,20.73-11.59,43.29-17.38,67.68-17.38,14.22,0,27.83,1.43,40.85,4.27,13.01,2.85,24.59,7.12,34.75,12.8v-79.27c0-8.53-1.32-14.83-3.96-18.9-2.65-4.06-8.23-6.9-16.77-8.53l-11.59-2.44v-6.09l110.97-26.83,6.71,5.49-2.44,85.36v298.15c0,8.13,1.42,14.74,4.27,19.81,2.84,5.09,8.12,8.64,15.85,10.67l5.49,1.83v6.1l-104.26,6.71-5.48-21.95c-10.98,7.32-23.48,13.21-37.5,17.68-14.02,4.47-29.57,6.71-46.65,6.71ZM1376.09,433.43c17.07,0,32.71-5.08,46.95-15.24v-242.06c-15.04-9.76-30.49-14.64-46.34-14.64-19.51,0-36.18,11.28-49.99,33.84-13.83,22.56-20.73,58.03-20.73,106.4s6.5,82.42,19.51,102.13c13.01,19.72,29.88,29.57,50.61,29.57Z"/>
        <path class="cls-1" d="M1651.01,455.99c-15.85,0-30.39-3.05-43.59-9.15-13.22-6.1-23.58-15.95-31.1-29.57-7.52-13.61-11.08-31.6-10.67-53.96l1.83-156.7c0-9.35-1.63-16.06-4.88-20.12-3.26-4.06-8.34-6.91-15.24-8.54l-7.32-2.44v-6.1l109.14-21.34,6.1,6.1-3.05,86.58v146.94c0,13.01,3.75,22.56,11.28,28.65,7.52,6.1,16.97,9.15,28.35,9.15s21.54-1.62,30.49-4.88c8.94-3.25,17.88-8.13,26.83-14.64l2.44-198.77c0-9.35-1.43-15.95-4.27-19.81-2.85-3.86-8.13-6.6-15.85-8.23l-6.1-1.83v-6.09l106.7-23.17,6.09,6.1-1.83,86.58v165.23c0,8.94,1.22,15.85,3.66,20.73,2.44,4.88,7.72,8.95,15.85,12.2l6.1,1.83v6.1l-106.7,6.1-5.49-35.97c-13.41,10.98-27.95,20.23-43.59,27.74-15.65,7.52-34.05,11.28-55.18,11.28Z"/>
        <path class="cls-1" d="M2028.78,455.99c-27.64,0-52.74-6-75.3-17.99-22.56-11.99-40.45-29.47-53.66-52.44-13.21-22.96-19.81-51.11-19.81-84.44s7.21-61.07,21.65-84.45c14.42-23.37,33.74-41.25,57.92-53.65,24.19-12.4,50.7-18.6,79.57-18.6,23.57,0,43.49,3.87,59.75,11.59,16.25,7.73,28.65,17.79,37.19,30.18,8.54,12.4,12.8,25.3,12.8,38.72,0,11.38-3.46,20.22-10.36,26.52-6.91,6.3-15.85,9.45-26.83,9.45-11.79,0-21.34-4.27-28.65-12.81-7.32-8.54-11.59-19.71-12.81-33.53-.41-8.94-.21-16.56.61-22.86.81-6.3.81-12.7,0-19.21-1.63-6.91-4.17-11.48-7.62-13.72-3.46-2.23-8.23-3.36-14.33-3.36-24.8,0-44.01,10.78-57.62,32.32-13.62,21.55-20.43,55.89-20.43,103.04,0,41.06,7.62,72.46,22.86,94.2,15.24,21.75,38.72,32.62,70.43,32.62,19.1,0,34.54-3.45,46.33-10.36,11.79-6.91,23.17-17.27,34.15-31.1l6.1,4.88c-10.17,23.99-25.82,42.48-46.95,55.49-21.14,13-46.14,19.51-75,19.51Z"/>
        <path class="cls-1" d="M2275.96,455.99c-26.02,0-46.25-6.51-60.67-19.51-14.43-13.01-21.65-33.74-21.65-62.19v-208.52h-42.07v-6.1l14.63-2.44c12.6-2.84,23.48-6.91,32.62-12.2,9.14-5.28,18.19-12.4,27.13-21.34l50-55.48h6.09l-1.83,85.36h68.29v12.2h-68.9v219.5c0,14.23,3.14,24.99,9.45,32.31,6.3,7.32,14.33,10.98,24.08,10.98,8.54,0,16.05-2.14,22.56-6.4,6.5-4.27,13-10.06,19.51-17.38l6.09,6.09c-8.13,13.83-19.31,24.8-33.53,32.93-14.23,8.13-31.51,12.2-51.83,12.2Z"/>
        <path class="cls-1" d="M2512.62,455.99c-30.9,0-57.73-6.41-80.49-19.21-22.77-12.8-40.35-30.99-52.74-54.57-12.41-23.57-18.6-51.22-18.6-82.93s6.6-59.14,19.82-82.31c13.2-23.17,31.3-41.06,54.26-53.65,22.96-12.6,48.88-18.91,77.75-18.91s54.66,6.2,77.43,18.6c22.76,12.41,40.75,30.18,53.96,53.35,13.2,23.17,19.82,50.81,19.82,82.92s-6.2,59.86-18.6,83.23c-12.41,23.38-29.88,41.46-52.44,54.27-22.56,12.8-49.29,19.21-80.17,19.21ZM2512.62,443.79c14.22,0,25.61-4.06,34.14-12.19,8.54-8.13,14.73-22.56,18.59-43.29,3.86-20.73,5.8-50,5.8-87.8s-1.93-67.68-5.8-88.41c-3.86-20.73-10.06-35.16-18.59-43.3-8.54-8.12-19.92-12.19-34.14-12.19s-25.72,4.07-34.45,12.19c-8.75,8.14-15.05,22.56-18.9,43.3-3.87,20.73-5.8,50.2-5.8,88.41s1.93,67.07,5.8,87.8c3.85,20.73,10.15,35.16,18.9,43.29,8.74,8.13,20.22,12.19,34.45,12.19Z"/>
        <path class="cls-1" d="M2679.22,446.84v-6.1l9.14-2.44c8.13-2.44,13.72-6.1,16.77-10.98,3.05-4.88,4.57-11.17,4.57-18.9v-190.84c0-8.94-1.52-15.55-4.57-19.82-3.05-4.27-8.64-7.21-16.77-8.84l-9.14-2.44v-6.1l104.87-35.36,6.09,6.1,5.49,52.44v4.88c5.69-11.38,13.11-21.85,22.25-31.4,9.15-9.54,19.3-17.38,30.49-23.48,11.17-6.1,22.25-9.15,33.23-9.15,15.44,0,27.23,4.27,35.36,12.81,8.12,8.54,12.19,19.31,12.19,32.31,0,13.82-3.96,24.49-11.89,32.01-7.93,7.52-17.38,11.28-28.35,11.28-17.07,0-32.11-8.54-45.12-25.61l-1.22-1.22c-4.07-5.69-8.75-8.84-14.02-9.45-5.29-.61-10.17,1.93-14.64,7.62-4.07,3.66-7.42,8.04-10.06,13.11-2.65,5.09-5.18,10.88-7.62,17.38v170.12c0,16.26,7.11,26.43,21.34,30.48l19.51,5.49v6.1h-157.91Z"/>
        <g>
          <path class="cls-1" d="M76.48,264.39c-8.67-8.67-19.25-13.02-31.73-13.02s-23.05,4.35-31.73,13.02c-8.67,8.68-13.02,19.26-13.02,31.73s4.35,22.92,13.02,31.32c8.69,8.42,19.26,12.61,31.73,12.61s23.06-4.19,31.73-12.61c8.68-8.4,13.01-18.84,13.01-31.32s-4.33-23.05-13.01-31.73ZM76.48,85.4c-8.67-8.67-19.25-13.02-31.73-13.02s-23.05,4.35-31.73,13.02C4.35,94.08,0,104.66,0,117.13s4.35,22.92,13.02,31.33c8.69,8.41,19.26,12.61,31.73,12.61s23.06-4.2,31.73-12.61c8.68-8.4,13.01-18.84,13.01-31.33s-4.33-23.05-13.01-31.73Z"/>
          <path class="cls-1" d="M498.49,341.1c5.03,2.46,7.8,3.82,12.83,6.28-32.36,88.46-120.32,112.72-193.59,108.06-34.36-2.18-121.1-15.75-171.27-96.11-44.51-71.3-43.41-183.3-2.58-252.97C203.41,4.81,345.88-27.79,453.16,24.95c27.46,13.5,48.35,32.99,64.75,57.4,22.08,32.97,33.04,83.59,14.88,121.12-14.82,28.92-46.19,47.59-78.31,49.79-43.26,5.32-92.84-26.52-91.41-72.65.07-19.2,7.82-37.49,22.37-49.24,13.71-11.57,31.71-16.24,49.53-15.68,11.48.08,23.45,4.57,34.6,5.7,7.96.86,17.89-.85,21.93-8.68,6.62-14.87-6.58-32.73-16.27-43.75-13.48-14.83-30.21-24.23-49.02-32.01-40.21-16.64-96.97-12.39-139.65,20.45-45.19,34.77-54.09,98.65-51.46,163.8,2.69,66.37,21.09,112.1,59.84,147.21,38.79,35.15,106.4,47.05,157.68,18.07,10.78-6.09,29.88-19.14,45.87-45.38Z"/>
        </g>
      </g>
      <g>
        <path class="cls-1" d="M316.1,684.31l51.79-140.53h14.46l51.79,140.53h-14.86l-44.17-122.06-44.37,122.06h-14.66ZM339.79,646.37l4.22-11.64h62.03l4.22,11.64h-70.46Z"/>
        <path class="cls-1" d="M511.44,684.31v-140.53h83.92v11.64h-69.86v52.6h60.23v11.64h-60.23v64.64h-14.05Z"/>
        <path class="cls-1" d="M625.66,559.24c-2.81,0-5.19-.97-7.13-2.91-1.94-1.94-2.91-4.38-2.91-7.33s.97-5.35,2.91-7.23c1.94-1.87,4.32-2.81,7.13-2.81s5.22.94,7.23,2.81c2.01,1.88,3.01,4.29,3.01,7.23s-1,5.39-3.01,7.33c-2.01,1.94-4.42,2.91-7.23,2.91ZM618.64,684.31v-101.18h14.05v101.18h-14.05Z"/>
        <path class="cls-1" d="M663.4,684.31v-101.18h12.65l1,19.47c2.14-4.68,5.02-8.63,8.63-11.84,3.61-3.21,7.96-5.69,13.05-7.43,5.08-1.74,10.91-2.61,17.47-2.61v14.66h-5.62c-4.29,0-8.43.57-12.45,1.71-4.01,1.14-7.56,3.05-10.64,5.72-3.08,2.68-5.52,6.29-7.33,10.84-1.81,4.55-2.71,10.24-2.71,17.06v53.6h-14.05Z"/>
        <path class="cls-1" d="M773.01,686.72c-8.17,0-15.26-1.34-21.28-4.02-6.02-2.67-10.91-6.52-14.65-11.54-3.75-5.02-6.02-11.01-6.83-17.97h14.66c.67,3.88,2.17,7.4,4.52,10.54,2.34,3.15,5.52,5.72,9.54,7.73,4.01,2.01,8.76,3.01,14.25,3.01,5.08,0,9.27-.77,12.55-2.31,3.28-1.54,5.75-3.65,7.43-6.32,1.67-2.68,2.51-5.55,2.51-8.63,0-4.42-1-7.83-3.01-10.24-2.01-2.41-4.95-4.28-8.83-5.62-3.88-1.34-8.7-2.48-14.45-3.41-4.29-.8-8.53-1.84-12.75-3.11-4.22-1.27-7.96-3.01-11.24-5.22-3.28-2.21-5.86-4.95-7.73-8.23-1.88-3.28-2.81-7.13-2.81-11.54,0-5.75,1.41-10.81,4.22-15.16,2.81-4.35,6.93-7.76,12.35-10.24,5.42-2.47,11.67-3.71,18.77-3.71,10.44,0,18.94,2.58,25.5,7.73,6.56,5.15,10.44,12.68,11.64,22.58h-14.25c-.54-5.49-2.81-9.87-6.83-13.15-4.02-3.28-9.44-4.92-16.26-4.92s-11.81,1.41-15.36,4.22c-3.55,2.81-5.32,6.56-5.32,11.24,0,2.81.93,5.32,2.81,7.53,1.87,2.21,4.62,4.12,8.23,5.72,3.61,1.61,8.16,2.88,13.65,3.81,6.29,1.21,12.18,2.78,17.67,4.72,5.49,1.94,9.94,4.89,13.35,8.83,3.41,3.95,5.12,9.54,5.12,16.76,0,6.02-1.51,11.38-4.52,16.06-3.01,4.69-7.33,8.33-12.95,10.94-5.62,2.61-12.18,3.92-19.67,3.92Z"/>
        <path class="cls-1" d="M868.57,684.31c-5.76,0-10.71-.9-14.86-2.71-4.15-1.81-7.33-4.85-9.54-9.13-2.21-4.28-3.31-10.04-3.31-17.26v-60.03h-17.67v-12.04h17.67l2.01-23.69h12.04v23.69h30.11v12.04h-30.11v60.03c0,6.69,1.37,11.21,4.12,13.55,2.74,2.34,7.46,3.51,14.15,3.51h10.44v12.04h-15.06Z"/>
        <path class="cls-1" d="M902.9,631.31v-12.04h78.09v12.04h-78.09Z"/>
        <path class="cls-1" d="M1067.12,686.72c-13.52,0-25.26-3.04-35.23-9.13-9.97-6.09-17.6-14.59-22.89-25.5-5.29-10.91-7.93-23.59-7.93-38.04s2.64-27.13,7.93-38.04c5.29-10.91,12.91-19.4,22.89-25.5,9.97-6.09,21.71-9.13,35.23-9.13,15.79,0,28.57,3.71,38.34,11.14,9.77,7.43,16.06,17.9,18.87,31.42h-15.46c-2.28-9.1-6.86-16.43-13.75-21.98-6.89-5.55-16.23-8.33-28-8.33-10.44,0-19.51,2.41-27.2,7.23-7.7,4.82-13.69,11.74-17.97,20.78-4.29,9.03-6.42,19.84-6.42,32.42s2.14,23.39,6.42,32.42c4.28,9.03,10.27,15.96,17.97,20.78,7.69,4.82,16.76,7.23,27.2,7.23,11.78,0,21.14-2.74,28.11-8.23,6.96-5.49,11.51-12.71,13.65-21.68h15.46c-2.81,13.25-9.1,23.59-18.87,31.02-9.77,7.43-22.55,11.14-38.34,11.14Z"/>
        <path class="cls-1" d="M1148.62,684.31v-144.54h14.05v144.54h-14.05Z"/>
        <path class="cls-1" d="M1223.3,686.72c-8.17,0-14.96-1.47-20.38-4.42-5.42-2.94-9.47-6.76-12.15-11.44-2.68-4.68-4.01-9.84-4.01-15.46,0-6.96,1.77-12.85,5.32-17.67,3.54-4.82,8.56-8.43,15.06-10.84,6.49-2.41,14.02-3.61,22.58-3.61h27.3c0-6.56-1-12.11-3.01-16.66-2.01-4.55-4.92-8-8.73-10.34-3.81-2.34-8.73-3.51-14.76-3.51-6.96,0-12.88,1.74-17.77,5.22-4.89,3.48-7.93,8.63-9.13,15.46h-14.86c.94-7.23,3.44-13.25,7.53-18.07,4.08-4.82,9.17-8.46,15.26-10.94,6.09-2.47,12.41-3.71,18.97-3.71,9.37,0,17.03,1.78,22.99,5.32,5.95,3.55,10.37,8.4,13.25,14.55,2.88,6.16,4.32,13.32,4.32,21.48v62.23h-12.85l-.6-18.47c-1.34,2.81-3.05,5.49-5.12,8.03-2.08,2.54-4.49,4.75-7.23,6.62-2.75,1.88-5.92,3.38-9.54,4.52-3.61,1.13-7.76,1.71-12.45,1.71ZM1224.91,674.47c4.95,0,9.4-1,13.35-3.01,3.95-2.01,7.29-4.75,10.04-8.23,2.74-3.48,4.88-7.29,6.42-11.44,1.54-4.15,2.31-8.5,2.31-13.05v-3.81h-26.3c-7.1,0-12.78.87-17.06,2.61-4.28,1.74-7.4,4.12-9.33,7.13-1.94,3.01-2.91,6.46-2.91,10.34s.9,7.26,2.71,10.14c1.81,2.88,4.48,5.15,8.03,6.83,3.54,1.68,7.79,2.51,12.75,2.51Z"/>
        <path class="cls-1" d="M1334.92,686.72c-8.17,0-15.26-1.34-21.28-4.02-6.02-2.67-10.91-6.52-14.65-11.54-3.75-5.02-6.02-11.01-6.83-17.97h14.66c.67,3.88,2.17,7.4,4.52,10.54,2.34,3.15,5.52,5.72,9.54,7.73,4.01,2.01,8.76,3.01,14.25,3.01,5.08,0,9.27-.77,12.55-2.31,3.28-1.54,5.75-3.65,7.43-6.32,1.67-2.68,2.51-5.55,2.51-8.63,0-4.42-1-7.83-3.01-10.24-2.01-2.41-4.95-4.28-8.83-5.62-3.88-1.34-8.7-2.48-14.45-3.41-4.29-.8-8.53-1.84-12.75-3.11-4.22-1.27-7.96-3.01-11.24-5.22-3.28-2.21-5.86-4.95-7.73-8.23-1.88-3.28-2.81-7.13-2.81-11.54,0-5.75,1.41-10.81,4.22-15.16,2.81-4.35,6.93-7.76,12.35-10.24,5.42-2.47,11.67-3.71,18.77-3.71,10.44,0,18.94,2.58,25.5,7.73,6.56,5.15,10.44,12.68,11.64,22.58h-14.25c-.54-5.49-2.81-9.87-6.83-13.15-4.02-3.28-9.44-4.92-16.26-4.92s-11.81,1.41-15.36,4.22c-3.55,2.81-5.32,6.56-5.32,11.24,0,2.81.93,5.32,2.81,7.53,1.87,2.21,4.62,4.12,8.23,5.72,3.61,1.61,8.16,2.88,13.65,3.81,6.29,1.21,12.18,2.78,17.67,4.72,5.49,1.94,9.94,4.89,13.35,8.83,3.41,3.95,5.12,9.54,5.12,16.76,0,6.02-1.51,11.38-4.52,16.06-3.01,4.69-7.33,8.33-12.95,10.94-5.62,2.61-12.18,3.92-19.67,3.92Z"/>
        <path class="cls-1" d="M1434.29,686.72c-8.17,0-15.26-1.34-21.28-4.02-6.02-2.67-10.91-6.52-14.65-11.54-3.75-5.02-6.02-11.01-6.83-17.97h14.66c.67,3.88,2.17,7.4,4.52,10.54,2.34,3.15,5.52,5.72,9.54,7.73,4.01,2.01,8.76,3.01,14.25,3.01,5.08,0,9.27-.77,12.55-2.31,3.28-1.54,5.75-3.65,7.43-6.32,1.67-2.68,2.51-5.55,2.51-8.63,0-4.42-1-7.83-3.01-10.24-2.01-2.41-4.95-4.28-8.83-5.62-3.88-1.34-8.7-2.48-14.45-3.41-4.29-.8-8.53-1.84-12.75-3.11-4.22-1.27-7.96-3.01-11.24-5.22-3.28-2.21-5.86-4.95-7.73-8.23-1.88-3.28-2.81-7.13-2.81-11.54,0-5.75,1.41-10.81,4.22-15.16,2.81-4.35,6.93-7.76,12.35-10.24,5.42-2.47,11.67-3.71,18.77-3.71,10.44,0,18.94,2.58,25.5,7.73,6.56,5.15,10.44,12.68,11.64,22.58h-14.25c-.54-5.49-2.81-9.87-6.83-13.15-4.02-3.28-9.44-4.92-16.26-4.92s-11.81,1.41-15.36,4.22c-3.55,2.81-5.32,6.56-5.32,11.24,0,2.81.93,5.32,2.81,7.53,1.87,2.21,4.62,4.12,8.23,5.72,3.61,1.61,8.16,2.88,13.65,3.81,6.29,1.21,12.18,2.78,17.67,4.72,5.49,1.94,9.94,4.89,13.35,8.83,3.41,3.95,5.12,9.54,5.12,16.76,0,6.02-1.51,11.38-4.52,16.06-3.01,4.69-7.33,8.33-12.95,10.94-5.62,2.61-12.18,3.92-19.67,3.92Z"/>
        <path class="cls-1" d="M1613.36,686.72c-13.52,0-25.26-3.04-35.23-9.13-9.97-6.09-17.6-14.59-22.89-25.5-5.29-10.91-7.93-23.59-7.93-38.04s2.64-27.13,7.93-38.04c5.29-10.91,12.91-19.4,22.89-25.5,9.97-6.09,21.71-9.13,35.23-9.13,15.79,0,28.57,3.71,38.34,11.14,9.77,7.43,16.06,17.9,18.87,31.42h-15.46c-2.28-9.1-6.86-16.43-13.75-21.98-6.89-5.55-16.23-8.33-28-8.33-10.44,0-19.51,2.41-27.2,7.23-7.7,4.82-13.69,11.74-17.97,20.78-4.29,9.03-6.42,19.84-6.42,32.42s2.14,23.39,6.42,32.42c4.28,9.03,10.27,15.96,17.97,20.78,7.69,4.82,16.76,7.23,27.2,7.23,11.78,0,21.14-2.74,28.11-8.23,6.96-5.49,11.51-12.71,13.65-21.68h15.46c-2.81,13.25-9.1,23.59-18.87,31.02-9.77,7.43-22.55,11.14-38.34,11.14Z"/>
        <path class="cls-1" d="M1739.43,686.72c-9.37,0-17.77-2.18-25.19-6.52s-13.28-10.5-17.57-18.47c-4.28-7.96-6.42-17.23-6.42-27.8s2.17-20.41,6.52-28.31c4.35-7.9,10.27-14.02,17.77-18.37,7.49-4.35,15.93-6.52,25.29-6.52s17.9,2.18,25.2,6.52c7.29,4.35,13.11,10.44,17.46,18.27,4.35,7.83,6.52,17.23,6.52,28.21s-2.21,20.04-6.62,28c-4.42,7.96-10.31,14.12-17.67,18.47-7.36,4.35-15.79,6.52-25.29,6.52ZM1739.43,674.67c6.15,0,11.88-1.54,17.17-4.62,5.29-3.08,9.6-7.66,12.95-13.75,3.34-6.09,5.02-13.62,5.02-22.58s-1.64-16.66-4.92-22.69c-3.28-6.02-7.53-10.57-12.75-13.65-5.22-3.08-10.91-4.62-17.06-4.62s-11.91,1.54-17.26,4.62c-5.35,3.08-9.67,7.63-12.95,13.65-3.28,6.02-4.92,13.59-4.92,22.69s1.61,16.5,4.82,22.58c3.21,6.09,7.46,10.67,12.75,13.75,5.29,3.08,11.01,4.62,17.16,4.62Z"/>
        <path class="cls-1" d="M1813.31,684.31v-101.18h12.65l1,15.26c3.08-5.49,7.36-9.8,12.85-12.95,5.49-3.14,11.51-4.72,18.07-4.72,5.22,0,9.94.74,14.15,2.21,4.22,1.47,7.96,3.68,11.24,6.62,3.28,2.95,5.85,6.76,7.73,11.44,3.34-6.29,8.03-11.24,14.05-14.86,6.02-3.61,12.58-5.42,19.67-5.42,7.63,0,14.32,1.54,20.08,4.62,5.75,3.08,10.24,7.73,13.45,13.95s4.82,14.29,4.82,24.19v60.83h-14.05v-59.42c0-10.84-2.21-18.87-6.62-24.09s-10.57-7.83-18.47-7.83c-5.35,0-10.21,1.41-14.55,4.22-4.35,2.81-7.8,6.96-10.34,12.45-2.54,5.49-3.81,12.25-3.81,20.28v54.4h-14.05v-59.42c0-10.84-2.21-18.87-6.62-24.09-4.42-5.22-10.57-7.83-18.47-7.83-5.49,0-10.41,1.44-14.76,4.32-4.35,2.88-7.76,7.1-10.24,12.65-2.48,5.55-3.71,12.42-3.71,20.58v53.8h-14.05Z"/>
        <path class="cls-1" d="M1989.77,728.47v-145.35h12.65l1.21,18.07c2.14-3.48,4.95-6.79,8.43-9.94,3.48-3.14,7.63-5.69,12.45-7.63,4.82-1.94,10.37-2.91,16.66-2.91,10.04,0,18.7,2.31,26,6.93,7.29,4.62,12.95,10.91,16.96,18.87,4.02,7.96,6.02,17.1,6.02,27.4s-2.04,19.24-6.12,27.2c-4.08,7.96-9.77,14.22-17.06,18.77-7.3,4.55-15.96,6.83-26,6.83-8.43,0-15.89-1.84-22.38-5.52-6.49-3.68-11.41-8.87-14.76-15.56v62.84h-14.05ZM2040.16,674.47c6.96,0,13.08-1.71,18.37-5.12,5.29-3.41,9.47-8.13,12.55-14.15,3.08-6.02,4.62-13.12,4.62-21.28s-1.54-15.52-4.62-21.68c-3.08-6.15-7.26-10.91-12.55-14.25-5.29-3.34-11.41-5.02-18.37-5.02s-13.12,1.67-18.47,5.02c-5.35,3.35-9.54,8.1-12.55,14.25-3.01,6.16-4.52,13.38-4.52,21.68s1.5,15.26,4.52,21.28c3.01,6.02,7.19,10.74,12.55,14.15,5.35,3.41,11.51,5.12,18.47,5.12Z"/>
        <path class="cls-1" d="M2158.81,686.72c-9.37,0-17.77-2.18-25.19-6.52s-13.28-10.5-17.57-18.47c-4.28-7.96-6.42-17.23-6.42-27.8s2.17-20.41,6.52-28.31c4.35-7.9,10.27-14.02,17.77-18.37,7.49-4.35,15.93-6.52,25.29-6.52s17.9,2.18,25.2,6.52c7.29,4.35,13.11,10.44,17.46,18.27,4.35,7.83,6.52,17.23,6.52,28.21s-2.21,20.04-6.62,28c-4.42,7.96-10.31,14.12-17.67,18.47-7.36,4.35-15.79,6.52-25.29,6.52ZM2158.81,674.67c6.15,0,11.88-1.54,17.17-4.62,5.29-3.08,9.6-7.66,12.95-13.75,3.34-6.09,5.02-13.62,5.02-22.58s-1.64-16.66-4.92-22.69c-3.28-6.02-7.53-10.57-12.75-13.65-5.22-3.08-10.91-4.62-17.06-4.62s-11.91,1.54-17.26,4.62c-5.35,3.08-9.67,7.63-12.95,13.65-3.28,6.02-4.92,13.59-4.92,22.69s1.61,16.5,4.82,22.58c3.21,6.09,7.46,10.67,12.75,13.75,5.29,3.08,11.01,4.62,17.16,4.62Z"/>
        <path class="cls-1" d="M2269.82,686.72c-8.17,0-15.26-1.34-21.28-4.02-6.02-2.67-10.91-6.52-14.65-11.54-3.75-5.02-6.02-11.01-6.83-17.97h14.66c.67,3.88,2.17,7.4,4.52,10.54,2.34,3.15,5.52,5.72,9.54,7.73,4.01,2.01,8.76,3.01,14.25,3.01,5.08,0,9.27-.77,12.55-2.31,3.28-1.54,5.75-3.65,7.43-6.32,1.67-2.68,2.51-5.55,2.51-8.63,0-4.42-1-7.83-3.01-10.24-2.01-2.41-4.95-4.28-8.83-5.62-3.88-1.34-8.7-2.48-14.45-3.41-4.29-.8-8.53-1.84-12.75-3.11-4.22-1.27-7.96-3.01-11.24-5.22-3.28-2.21-5.86-4.95-7.73-8.23-1.88-3.28-2.81-7.13-2.81-11.54,0-5.75,1.41-10.81,4.22-15.16,2.81-4.35,6.93-7.76,12.35-10.24,5.42-2.47,11.67-3.71,18.77-3.71,10.44,0,18.94,2.58,25.5,7.73,6.56,5.15,10.44,12.68,11.64,22.58h-14.25c-.54-5.49-2.81-9.87-6.83-13.15-4.02-3.28-9.44-4.92-16.26-4.92s-11.81,1.41-15.36,4.22c-3.55,2.81-5.32,6.56-5.32,11.24,0,2.81.93,5.32,2.81,7.53,1.87,2.21,4.62,4.12,8.23,5.72,3.61,1.61,8.16,2.88,13.65,3.81,6.29,1.21,12.18,2.78,17.67,4.72,5.49,1.94,9.94,4.89,13.35,8.83,3.41,3.95,5.12,9.54,5.12,16.76,0,6.02-1.51,11.38-4.52,16.06-3.01,4.69-7.33,8.33-12.95,10.94-5.62,2.61-12.18,3.92-19.67,3.92Z"/>
        <path class="cls-1" d="M2340.69,559.24c-2.81,0-5.19-.97-7.13-2.91-1.94-1.94-2.91-4.38-2.91-7.33s.97-5.35,2.91-7.23c1.94-1.87,4.32-2.81,7.13-2.81s5.22.94,7.23,2.81c2.01,1.88,3.01,4.29,3.01,7.23s-1,5.39-3.01,7.33c-2.01,1.94-4.42,2.91-7.23,2.91ZM2333.66,684.31v-101.18h14.05v101.18h-14.05Z"/>
        <path class="cls-1" d="M2416.57,684.31c-5.76,0-10.71-.9-14.86-2.71-4.15-1.81-7.33-4.85-9.54-9.13-2.21-4.28-3.31-10.04-3.31-17.26v-60.03h-17.67v-12.04h17.67l2.01-23.69h12.04v23.69h30.11v12.04h-30.11v60.03c0,6.69,1.37,11.21,4.12,13.55,2.74,2.34,7.46,3.51,14.15,3.51h10.44v12.04h-15.06Z"/>
        <path class="cls-1" d="M2463.95,559.24c-2.81,0-5.19-.97-7.13-2.91-1.94-1.94-2.91-4.38-2.91-7.33s.97-5.35,2.91-7.23c1.94-1.87,4.32-2.81,7.13-2.81s5.22.94,7.23,2.81c2.01,1.88,3.01,4.29,3.01,7.23s-1,5.39-3.01,7.33c-2.01,1.94-4.42,2.91-7.23,2.91ZM2456.92,684.31v-101.18h14.05v101.18h-14.05Z"/>
        <path class="cls-1" d="M2546.25,686.72c-9.37,0-17.77-2.18-25.19-6.52s-13.28-10.5-17.57-18.47c-4.28-7.96-6.42-17.23-6.42-27.8s2.17-20.41,6.52-28.31c4.35-7.9,10.27-14.02,17.77-18.37,7.49-4.35,15.93-6.52,25.29-6.52s17.9,2.18,25.2,6.52c7.29,4.35,13.11,10.44,17.46,18.27,4.35,7.83,6.52,17.23,6.52,28.21s-2.21,20.04-6.62,28c-4.42,7.96-10.31,14.12-17.67,18.47-7.36,4.35-15.79,6.52-25.29,6.52ZM2546.25,674.67c6.15,0,11.88-1.54,17.17-4.62,5.29-3.08,9.6-7.66,12.95-13.75,3.34-6.09,5.02-13.62,5.02-22.58s-1.64-16.66-4.92-22.69c-3.28-6.02-7.53-10.57-12.75-13.65-5.22-3.08-10.91-4.62-17.06-4.62s-11.91,1.54-17.26,4.62c-5.35,3.08-9.67,7.63-12.95,13.65-3.28,6.02-4.92,13.59-4.92,22.69s1.61,16.5,4.82,22.58c3.21,6.09,7.46,10.67,12.75,13.75,5.29,3.08,11.01,4.62,17.16,4.62Z"/>
        <path class="cls-1" d="M2620.13,684.31v-101.18h12.65l.8,18.07c3.21-6.56,7.86-11.61,13.95-15.16,6.09-3.54,12.88-5.32,20.38-5.32s14.52,1.54,20.28,4.62c5.75,3.08,10.24,7.73,13.45,13.95,3.21,6.22,4.82,14.22,4.82,23.99v61.03h-14.05v-59.42c0-10.84-2.34-18.87-7.03-24.09-4.69-5.22-11.38-7.83-20.08-7.83-5.89,0-11.21,1.44-15.96,4.32-4.75,2.88-8.47,7.03-11.14,12.45-2.68,5.42-4.02,12.21-4.02,20.38v54.2h-14.05Z"/>
      </g>
    </g>
  </g>
</svg>