<?xml version="1.0" encoding="UTF-8"?>
<svg id="Layer_2" data-name="Layer 2" xmlns="http://www.w3.org/2000/svg" viewBox="0 0 1127.46 1119.24">
  <defs>
    <style>
      .cls-1 {
        fill: #df4540;
      }

      .cls-2 {
        fill: #f5f1ed;
      }
    </style>
  </defs>
  <g id="Layer_2-2" data-name="Layer 2">
    <g>
      <rect class="cls-1" x="0" y="0" width="1127.46" height="1119.24"/>
      <g>
        <path class="cls-2" d="M236.27,621.07c-14.6-14.6-32.42-21.92-53.43-21.92s-38.8,7.33-53.43,21.92c-14.6,14.61-21.92,32.43-21.92,53.43s7.33,38.59,21.92,52.73c14.62,14.18,32.43,21.23,53.43,21.23s38.83-7.05,53.43-21.23c14.61-14.15,21.91-31.72,21.91-52.73s-7.3-38.82-21.91-53.43ZM236.27,319.68c-14.6-14.6-32.42-21.92-53.43-21.92s-38.8,7.33-53.43,21.92c-14.6,14.62-21.92,32.43-21.92,53.43s7.33,38.6,21.92,52.75c14.62,14.16,32.43,21.23,53.43,21.23s38.83-7.07,53.43-21.23c14.61-14.15,21.91-31.72,21.91-52.75s-7.3-38.8-21.91-53.43Z"/>
        <path class="cls-2" d="M946.82,750.22c8.48,4.15,13.13,6.43,21.61,10.58-47.56,132.93-160.11,189.09-325.95,181.95-80.85-3.48-203.9-26.52-288.37-161.82-74.95-120.05-73.09-308.64-4.34-425.93,100.22-171,340.11-225.88,520.74-137.08,46.23,22.73,81.4,55.55,109.02,96.65,37.17,55.51,55.64,140.74,25.06,203.93-24.95,48.7-77.76,80.12-131.86,83.84-72.84,8.95-156.32-44.66-153.91-122.32.12-32.33,13.17-63.13,37.66-82.9,23.08-19.48,53.4-27.34,83.39-26.41,19.34.13,39.48,7.7,58.26,9.6,13.41,1.46,30.12-1.43,36.92-14.61,11.15-25.04-11.08-55.1-27.4-73.66-22.69-24.97-50.87-40.8-82.53-53.9-67.71-28.03-163.27-20.87-235.13,34.43-76.09,58.55-91.08,166.1-86.64,275.79,4.52,111.74,35.52,188.75,100.75,247.86,65.32,59.18,179.15,79.22,265.49,30.42,18.16-10.26,50.32-32.23,77.23-76.41Z"/>
      </g>
    </g>
  </g>
</svg>