<?xml version="1.0" encoding="UTF-8"?>
<svg id="Layer_2" data-name="Layer 2" xmlns="http://www.w3.org/2000/svg" viewBox="0 0 671.36 564.66">
  <defs>
    <style>
      .cls-1 {
        fill: #331817;
      }
    </style>
  </defs>
  <g id="Layer_1-2" data-name="Layer 1">
    <g>
      <path class="cls-1" d="M94.75,327.54c-10.74-10.74-23.85-16.13-39.31-16.13s-28.55,5.39-39.31,16.13c-10.74,10.75-16.13,23.86-16.13,39.31s5.39,28.39,16.13,38.8c10.76,10.43,23.86,15.62,39.31,15.62s28.57-5.19,39.31-15.62c10.75-10.41,16.12-23.34,16.12-38.8s-5.37-28.56-16.12-39.31ZM94.75,105.79c-10.74-10.74-23.85-16.13-39.31-16.13s-28.55,5.39-39.31,16.13C5.39,116.55,0,129.65,0,145.1s5.39,28.4,16.13,38.81c10.76,10.42,23.86,15.62,39.31,15.62s28.57-5.2,39.31-15.62c10.75-10.41,16.12-23.34,16.12-38.81s-5.37-28.55-16.12-39.31Z"/>
      <path class="cls-1" d="M617.54,422.57l15.9,7.78c-34.99,97.8-117.8,139.12-239.82,133.87-59.49-2.56-150.02-19.51-212.17-119.06-55.14-88.33-53.78-227.08-3.19-313.38C252,5.96,428.49-34.43,561.39,30.91c34.02,16.72,59.89,40.87,80.21,71.11,27.35,40.85,40.94,103.55,18.44,150.04-18.36,35.83-57.22,58.95-97.02,61.69-53.59,6.59-115.01-32.86-113.24-90,.09-23.79,9.69-46.45,27.71-61,16.98-14.33,39.29-20.12,61.36-19.43,14.23.1,29.05,5.67,42.86,7.06,9.87,1.07,22.16-1.05,27.17-10.75,8.2-18.42-8.15-40.54-20.16-54.2-16.69-18.37-37.43-30.02-60.72-39.66-49.82-20.62-120.13-15.35-173,25.33-55.98,43.08-67.01,122.21-63.75,202.92,3.33,82.22,26.13,138.88,74.13,182.37,48.06,43.54,131.81,58.29,195.34,22.38,13.36-7.55,37.02-23.71,56.82-56.22Z"/>
    </g>
  </g>
</svg>