<?xml version="1.0" encoding="UTF-8"?>
<svg id="Layer_2" data-name="Layer 2" xmlns="http://www.w3.org/2000/svg" viewBox="0 0 4582.21 1011.01">
  <defs>
    <style>
      .cls-1 {
        fill: #8d5b48;
      }

      .cls-2 {
        fill: #ffcf9c;
      }
    </style>
  </defs>
  <g id="Layer_1-2" data-name="Layer 1">
    <g>
      <rect class="cls-2" x="0" y="0" width="4582.21" height="1011.01"/>
      <g>
        <path class="cls-1" d="M1108.28,832.38c-46.27,0-86.44-9.59-120.53-28.77-34.1-19.17-60.42-46.4-78.98-81.71-18.58-35.29-27.85-76.69-27.85-124.18s9.89-88.56,29.68-123.26c19.77-34.7,46.87-61.48,81.25-80.35,34.39-18.87,73.19-28.31,116.42-28.31s81.85,9.29,115.95,27.85c34.08,18.58,61.02,45.2,80.8,79.89,19.77,34.69,29.68,76.09,29.68,124.17s-9.29,89.63-27.85,124.63c-18.58,35.01-44.74,62.09-78.52,81.26-33.78,19.17-73.81,28.77-120.06,28.77ZM1108.28,814.11c21.3,0,38.34-6.08,51.13-18.26,12.78-12.17,22.06-33.79,27.84-64.83,5.79-31.05,8.68-74.87,8.68-131.48s-2.89-101.35-8.68-132.39c-5.79-31.05-15.06-52.64-27.84-64.83-12.78-12.17-29.83-18.26-51.13-18.26s-38.51,6.09-51.59,18.26c-13.1,12.19-22.53,33.79-28.3,64.83-5.79,31.04-8.68,75.18-8.68,132.39s2.89,100.43,8.68,131.48c5.77,31.04,15.2,52.65,28.3,64.83,13.08,12.18,30.27,18.26,51.59,18.26Z"/>
        <path class="cls-1" d="M1340.9,818.68v-9.13l12.78-3.65c21.3-6.08,31.96-21,31.96-44.74v-285.78c0-13.39-2.14-23.28-6.4-29.68-4.27-6.39-12.48-10.8-24.65-13.24l-13.69-3.65v-9.13l156.13-52.96,9.13,9.13,7.3,54.79c21.3-18.87,45.34-34.39,72.13-46.57,26.78-12.17,53.25-18.26,79.44-18.26,40.17,0,71.06,10.96,92.68,32.87,21.6,21.92,32.41,55.4,32.41,100.44v262.95c0,23.74,11.56,38.66,34.69,44.74l8.22,2.74v9.13h-215.48v-9.13l11.87-3.65c21.31-6.69,31.96-21.6,31.96-44.74v-291.26c0-38.95-19.49-58.44-58.44-58.44-26.79,0-56.01,13.4-87.65,40.17v310.44c0,23.74,10.64,38.66,31.96,44.74l8.22,2.74v9.13h-214.56Z"/>
        <path class="cls-1" d="M2023.71,832.38c-35.92,0-68.17-8.08-96.78-24.2-28.62-16.12-51.28-41.09-68.02-74.86-16.76-33.79-25.11-77.16-25.11-130.11s9.44-97.84,28.31-132.85c18.86-35,43.82-61.17,74.86-78.52,31.04-17.35,64.83-26.03,101.35-26.03,21.3,0,41.68,2.14,61.17,6.4,19.48,4.26,36.82,10.66,52.04,19.17v-118.7c0-12.78-1.98-22.21-5.93-28.3-3.96-6.08-12.32-10.34-25.11-12.78l-17.35-3.66v-9.12l166.17-40.17,10.05,8.22-3.66,127.82v446.48c0,12.18,2.13,22.07,6.4,29.67,4.25,7.62,12.17,12.94,23.74,15.98l8.22,2.74v9.13l-156.13,10.05-8.21-32.87c-16.44,10.95-35.15,19.78-56.15,26.47-21,6.69-44.29,10.05-69.85,10.05ZM2076.68,798.59c25.56,0,48.98-7.61,70.3-22.82v-362.48c-22.53-14.61-45.65-21.92-69.39-21.92-29.21,0-54.18,16.9-74.86,50.67-20.7,33.79-31.05,86.9-31.05,159.32s9.73,123.42,29.22,152.94c19.48,29.53,44.74,44.29,75.79,44.29Z"/>
        <path class="cls-1" d="M2473.39,832.38c-23.74,0-45.51-4.57-65.28-13.7-19.79-9.13-35.31-23.88-46.57-44.29-11.27-20.38-16.59-47.32-15.97-80.8l2.74-234.65c0-14-2.44-24.04-7.3-30.13-4.88-6.08-12.49-10.34-22.82-12.78l-10.96-3.65v-9.13l163.44-31.96,9.13,9.13-4.57,129.65v220.04c0,19.48,5.62,33.78,16.89,42.91,11.26,9.13,25.41,13.7,42.46,13.7s32.26-2.42,45.65-7.3c13.39-4.87,26.78-12.17,40.17-21.92l3.65-297.65c0-14-2.13-23.88-6.39-29.67-4.27-5.78-12.18-9.88-23.74-12.32l-9.13-2.74v-9.12l159.78-34.7,9.12,9.13-2.74,129.65v247.43c0,13.39,1.82,23.74,5.48,31.04,3.65,7.31,11.56,13.4,23.74,18.26l9.13,2.74v9.13l-159.78,9.13-8.22-53.87c-20.09,16.44-41.85,30.29-65.28,41.54-23.44,11.26-50.99,16.9-82.64,16.9Z"/>
        <path class="cls-1" d="M3024.11,832.38c-41.39,0-78.97-8.99-112.75-26.94-33.79-17.95-60.57-44.13-80.35-78.52-19.78-34.38-29.67-76.54-29.67-126.45s10.8-91.45,32.42-126.46c21.6-34.99,50.52-61.77,86.73-80.35,36.22-18.56,75.93-27.85,119.16-27.85,35.29,0,65.12,5.79,89.48,17.35,24.33,11.57,42.91,26.64,55.69,45.2,12.78,18.57,19.17,37.89,19.17,57.98,0,17.04-5.18,30.28-15.52,39.72-10.35,9.44-23.74,14.15-40.17,14.15-17.66,0-31.96-6.4-42.91-19.18-10.96-12.78-17.35-29.52-19.18-50.21-.61-13.39-.31-24.8.91-34.24,1.21-9.44,1.21-19.02,0-28.77-2.44-10.34-6.25-17.19-11.42-20.54-5.18-3.34-12.32-5.03-21.45-5.03-37.13,0-65.9,16.14-86.28,48.4-20.4,32.27-30.59,83.7-30.59,154.3,0,61.49,11.41,108.51,34.24,141.06,22.82,32.57,57.98,48.85,105.46,48.85,28.6,0,51.73-5.17,69.38-15.52,17.65-10.34,34.7-25.86,51.13-46.57l9.13,7.3c-15.22,35.93-38.66,63.61-70.31,83.09-31.66,19.47-69.09,29.22-112.31,29.22Z"/>
        <path class="cls-1" d="M3379.28,832.38c-38.96,0-69.25-9.75-90.85-29.22-21.61-19.48-32.42-50.52-32.42-93.13v-312.26h-63v-9.13l21.91-3.65c18.87-4.25,35.15-10.34,48.85-18.26,13.69-7.9,27.23-18.56,40.63-31.96l74.87-83.08h9.12l-2.74,127.82h102.26v18.26h-103.17v328.69c0,21.31,4.71,37.43,14.15,48.39,9.43,10.95,21.45,16.44,36.06,16.44,12.78,0,24.03-3.2,33.79-9.59,9.73-6.4,19.47-15.07,29.22-26.02l9.12,9.12c-12.18,20.7-28.91,37.14-50.21,49.31-21.31,12.17-47.18,18.26-77.61,18.26Z"/>
        <path class="cls-1" d="M3718.69,832.38c-46.27,0-86.44-9.59-120.53-28.77-34.1-19.17-60.42-46.4-78.98-81.71-18.58-35.29-27.85-76.69-27.85-124.18s9.89-88.56,29.68-123.26c19.77-34.7,46.87-61.48,81.25-80.35,34.39-18.87,73.19-28.31,116.42-28.31s81.85,9.29,115.95,27.85c34.08,18.58,61.02,45.2,80.8,79.89,19.77,34.69,29.68,76.09,29.68,124.17s-9.29,89.63-27.85,124.63c-18.58,35.01-44.74,62.09-78.52,81.26-33.78,19.17-73.81,28.77-120.06,28.77ZM3718.69,814.11c21.3,0,38.34-6.08,51.13-18.26,12.78-12.17,22.06-33.79,27.84-64.83,5.79-31.05,8.68-74.87,8.68-131.48s-2.89-101.35-8.68-132.39c-5.79-31.05-15.06-52.64-27.84-64.83-12.78-12.17-29.83-18.26-51.13-18.26s-38.51,6.09-51.59,18.26c-13.1,12.19-22.53,33.79-28.3,64.83-5.79,31.04-8.68,75.18-8.68,132.39s2.89,100.43,8.68,131.48c5.77,31.04,15.2,52.65,28.3,64.83,13.08,12.18,30.27,18.26,51.59,18.26Z"/>
        <path class="cls-1" d="M3953.2,818.68v-9.13l13.69-3.65c12.17-3.65,20.54-9.13,25.11-16.44,4.57-7.3,6.85-16.73,6.85-28.3v-285.78c0-13.39-2.28-23.28-6.85-29.68-4.57-6.39-12.93-10.8-25.11-13.24l-13.69-3.65v-9.13l157.04-52.96,9.12,9.13,8.23,78.52v7.3c8.51-17.04,19.63-32.71,33.32-47.02,13.7-14.29,28.9-26.02,45.65-35.15,16.73-9.13,33.32-13.7,49.76-13.7,23.12,0,40.78,6.4,52.96,19.18,12.17,12.78,18.26,28.91,18.26,48.39,0,20.7-5.93,36.68-17.8,47.94-11.87,11.27-26.02,16.89-42.46,16.89-25.57,0-48.09-12.78-67.56-38.35l-1.83-1.82c-6.09-8.52-13.1-13.24-20.99-14.15-7.92-.91-15.23,2.89-21.92,11.41-6.09,5.48-11.11,12.03-15.07,19.63-3.96,7.62-7.76,16.29-11.42,26.02v254.74c0,24.35,10.65,39.57,31.96,45.65l29.21,8.22v9.13h-236.47Z"/>
        <g>
          <path class="cls-1" d="M340.98,616.19c-9.78-9.78-21.72-14.69-35.8-14.69s-26,4.91-35.8,14.69c-9.78,9.79-14.69,21.73-14.69,35.8s4.91,25.86,14.69,35.34c9.8,9.5,21.73,14.23,35.8,14.23s26.02-4.73,35.8-14.23c9.79-9.48,14.68-21.26,14.68-35.34s-4.89-26.01-14.68-35.8ZM340.98,414.22c-9.78-9.78-21.72-14.69-35.8-14.69s-26,4.91-35.8,14.69c-9.78,9.8-14.69,21.73-14.69,35.8s4.91,25.87,14.69,35.35c9.8,9.49,21.73,14.23,35.8,14.23s26.02-4.74,35.8-14.23c9.79-9.48,14.68-21.26,14.68-35.35s-4.89-26-14.68-35.8Z"/>
          <path class="cls-1" d="M817.14,702.74c5.68,2.78,8.8,4.31,14.48,7.09-36.51,99.81-135.76,127.19-218.43,121.93-38.77-2.46-136.64-17.77-193.25-108.44-50.23-80.45-48.98-206.83-2.91-285.43,67.16-114.59,227.92-151.38,348.97-91.87,30.98,15.23,54.55,37.22,73.06,64.77,24.91,37.2,37.28,94.32,16.79,136.66-16.72,32.64-52.11,53.69-88.36,56.19-48.81,6-104.76-29.93-103.14-81.97.08-21.67,8.82-42.3,25.24-55.56,15.46-13.05,35.78-18.32,55.89-17.7,12.96.09,26.46,5.16,39.04,6.43,8.99.98,20.18-.96,24.74-9.79,7.47-16.78-7.43-36.93-18.36-49.37-15.21-16.74-34.09-27.34-55.31-36.12-45.37-18.78-109.41-13.99-157.57,23.07-50.99,39.24-61.04,111.31-58.06,184.82,3.03,74.88,23.8,126.49,67.52,166.1,43.77,39.66,120.06,53.09,177.92,20.39,12.17-6.88,33.72-21.6,51.76-51.2Z"/>
        </g>
      </g>
    </g>
  </g>
</svg>