<?xml version="1.0" encoding="UTF-8"?>
<svg id="Layer_2" xmlns="http://www.w3.org/2000/svg" version="1.1" viewBox="0 0 2849.2 456">
  <!-- Generator: Adobe Illustrator 29.0.0, SVG Export Plug-In . SVG Version: 2.1.0 Build 186)  -->
  <defs>
    <style>
      .st0 {
        fill: #331817;
      }
    </style>
  </defs>
  <g id="Layer_1-2">
    <g>
      <path class="st0" d="M699.4,456c-30.9,0-57.7-6.4-80.5-19.2-22.8-12.8-40.3-31-52.7-54.6-12.4-23.6-18.6-51.2-18.6-82.9s6.6-59.1,19.8-82.3c13.2-23.2,31.3-41.1,54.3-53.6,23-12.6,48.9-18.9,77.8-18.9s54.7,6.2,77.4,18.6c22.8,12.4,40.8,30.2,54,53.4,13.2,23.2,19.8,50.8,19.8,82.9s-6.2,59.9-18.6,83.2c-12.4,23.4-29.9,41.5-52.4,54.3-22.6,12.8-49.3,19.2-80.2,19.2h0ZM699.4,443.8c14.2,0,25.6-4.1,34.1-12.2,8.5-8.1,14.7-22.6,18.6-43.3,3.9-20.7,5.8-50,5.8-87.8s-1.9-67.7-5.8-88.4c-3.9-20.7-10.1-35.2-18.6-43.3-8.5-8.1-19.9-12.2-34.1-12.2s-25.7,4.1-34.5,12.2c-8.8,8.1-15,22.6-18.9,43.3-3.9,20.7-5.8,50.2-5.8,88.4s1.9,67.1,5.8,87.8c3.8,20.7,10.2,35.2,18.9,43.3,8.7,8.1,20.2,12.2,34.5,12.2Z"/>
      <path class="st0" d="M854.8,446.8v-6.1l8.5-2.4c14.2-4.1,21.3-14,21.3-29.9v-190.8c0-8.9-1.4-15.6-4.3-19.8-2.8-4.3-8.3-7.2-16.5-8.8l-9.1-2.4v-6.1l104.3-35.4,6.1,6.1,4.9,36.6c14.2-12.6,30.3-23,48.2-31.1,17.9-8.1,35.6-12.2,53-12.2,26.8,0,47.4,7.3,61.9,21.9,14.4,14.6,21.6,37,21.6,67.1v175.6c0,15.9,7.7,25.8,23.2,29.9l5.5,1.8v6.1h-143.9v-6.1l7.9-2.4c14.2-4.5,21.3-14.4,21.3-29.9v-194.5c0-26-13-39-39-39s-37.4,8.9-58.5,26.8v207.3c0,15.9,7.1,25.8,21.3,29.9l5.5,1.8v6.1h-143.3Z"/>
      <path class="st0" d="M1310.7,456c-24,0-45.5-5.4-64.6-16.2s-34.2-27.4-45.4-50c-11.2-22.6-16.8-51.5-16.8-86.9s6.3-65.3,18.9-88.7c12.6-23.4,29.3-40.9,50-52.4,20.7-11.6,43.3-17.4,67.7-17.4s27.8,1.4,40.8,4.3c13,2.9,24.6,7.1,34.8,12.8v-79.3c0-8.5-1.3-14.8-4-18.9-2.7-4.1-8.2-6.9-16.8-8.5l-11.6-2.4v-6.1l111-26.8,6.7,5.5-2.4,85.4v298.1c0,8.1,1.4,14.7,4.3,19.8,2.8,5.1,8.1,8.6,15.8,10.7l5.5,1.8v6.1l-104.3,6.7-5.5-22c-11,7.3-23.5,13.2-37.5,17.7s-29.6,6.7-46.7,6.7ZM1346.1,433.4c17.1,0,32.7-5.1,46.9-15.2v-242.1c-15-9.8-30.5-14.6-46.3-14.6s-36.2,11.3-50,33.8c-13.8,22.6-20.7,58-20.7,106.4s6.5,82.4,19.5,102.1c13,19.7,29.9,29.6,50.6,29.6h0Z"/>
      <path class="st0" d="M1611,456c-15.8,0-30.4-3-43.6-9.1-13.2-6.1-23.6-16-31.1-29.6-7.5-13.6-11.1-31.6-10.7-54l1.8-156.7c0-9.4-1.6-16.1-4.9-20.1-3.3-4.1-8.3-6.9-15.2-8.5l-7.3-2.4v-6.1l109.1-21.3,6.1,6.1-3.1,86.6v146.9c0,13,3.8,22.6,11.3,28.6,7.5,6.1,17,9.1,28.3,9.1s21.5-1.6,30.5-4.9c8.9-3.2,17.9-8.1,26.8-14.6l2.4-198.8c0-9.4-1.4-15.9-4.3-19.8-2.8-3.9-8.1-6.6-15.8-8.2l-6.1-1.8v-6.1l106.7-23.2,6.1,6.1-1.8,86.6v165.2c0,8.9,1.2,15.9,3.7,20.7,2.4,4.9,7.7,9,15.8,12.2l6.1,1.8v6.1l-106.7,6.1-5.5-36c-13.4,11-27.9,20.2-43.6,27.7-15.7,7.5-34.1,11.3-55.2,11.3h0Z"/>
      <path class="st0" d="M1978.8,456c-27.6,0-52.7-6-75.3-18s-40.4-29.5-53.7-52.4c-13.2-23-19.8-51.1-19.8-84.4s7.2-61.1,21.7-84.4c14.4-23.4,33.7-41.2,57.9-53.7,24.2-12.4,50.7-18.6,79.6-18.6s43.5,3.9,59.8,11.6c16.2,7.7,28.6,17.8,37.2,30.2,8.5,12.4,12.8,25.3,12.8,38.7s-3.5,20.2-10.4,26.5c-6.9,6.3-15.9,9.4-26.8,9.4s-21.3-4.3-28.7-12.8c-7.3-8.5-11.6-19.7-12.8-33.5-.4-8.9-.2-16.6.6-22.9.8-6.3.8-12.7,0-19.2-1.6-6.9-4.2-11.5-7.6-13.7-3.5-2.2-8.2-3.4-14.3-3.4-24.8,0-44,10.8-57.6,32.3-13.6,21.6-20.4,55.9-20.4,103s7.6,72.5,22.9,94.2c15.2,21.8,38.7,32.6,70.4,32.6s34.5-3.5,46.3-10.4c11.8-6.9,23.2-17.3,34.1-31.1l6.1,4.9c-10.2,24-25.8,42.5-46.9,55.5-21.1,13-46.1,19.5-75,19.5h0Z"/>
      <path class="st0" d="M2216,456c-26,0-46.2-6.5-60.7-19.5-14.4-13-21.6-33.7-21.6-62.2v-208.5h-42.1v-6.1l14.6-2.4c12.6-2.8,23.5-6.9,32.6-12.2,9.1-5.3,18.2-12.4,27.1-21.3l50-55.5h6.1l-1.8,85.4h68.3v12.2h-68.9v219.5c0,14.2,3.1,25,9.4,32.3,6.3,7.3,14.3,11,24.1,11s16.1-2.1,22.6-6.4c6.5-4.3,13-10.1,19.5-17.4l6.1,6.1c-8.1,13.8-19.3,24.8-33.5,32.9-14.2,8.1-31.5,12.2-51.8,12.2h0Z"/>
      <path class="st0" d="M2442.6,456c-30.9,0-57.7-6.4-80.5-19.2-22.8-12.8-40.4-31-52.7-54.6-12.4-23.6-18.6-51.2-18.6-82.9s6.6-59.1,19.8-82.3c13.2-23.2,31.3-41.1,54.3-53.6,23-12.6,48.9-18.9,77.8-18.9s54.7,6.2,77.4,18.6c22.8,12.4,40.8,30.2,54,53.4,13.2,23.2,19.8,50.8,19.8,82.9s-6.2,59.9-18.6,83.2c-12.4,23.4-29.9,41.5-52.4,54.3-22.6,12.8-49.3,19.2-80.2,19.2h0ZM2442.6,443.8c14.2,0,25.6-4.1,34.1-12.2,8.5-8.1,14.7-22.6,18.6-43.3s5.8-50,5.8-87.8-1.9-67.7-5.8-88.4c-3.9-20.7-10.1-35.2-18.6-43.3-8.5-8.1-19.9-12.2-34.1-12.2s-25.7,4.1-34.4,12.2c-8.8,8.1-15.1,22.6-18.9,43.3-3.9,20.7-5.8,50.2-5.8,88.4s1.9,67.1,5.8,87.8c3.9,20.7,10.1,35.2,18.9,43.3,8.7,8.1,20.2,12.2,34.4,12.2Z"/>
      <path class="st0" d="M2599.2,446.8v-6.1l9.1-2.4c8.1-2.4,13.7-6.1,16.8-11s4.6-11.2,4.6-18.9v-190.8c0-8.9-1.5-15.6-4.6-19.8s-8.6-7.2-16.8-8.8l-9.1-2.4v-6.1l104.9-35.4,6.1,6.1,5.5,52.4v4.9c5.7-11.4,13.1-21.9,22.2-31.4,9.1-9.5,19.3-17.4,30.5-23.5,11.2-6.1,22.2-9.1,33.2-9.1s27.2,4.3,35.4,12.8c8.1,8.5,12.2,19.3,12.2,32.3s-4,24.5-11.9,32c-7.9,7.5-17.4,11.3-28.4,11.3-17.1,0-32.1-8.5-45.1-25.6l-1.2-1.2c-4.1-5.7-8.8-8.8-14-9.4-5.3-.6-10.2,1.9-14.6,7.6-4.1,3.7-7.4,8-10.1,13.1-2.6,5.1-5.2,10.9-7.6,17.4v170.1c0,16.3,7.1,26.4,21.3,30.5l19.5,5.5v6.1h-157.9,0Z"/>
      <g>
        <path class="st0" d="M76.5,264.4c-8.7-8.7-19.2-13-31.7-13s-23,4.4-31.7,13C4.4,273.1,0,283.7,0,296.1s4.3,22.9,13,31.3c8.7,8.4,19.3,12.6,31.7,12.6s23.1-4.2,31.7-12.6c8.7-8.4,13-18.8,13-31.3s-4.3-23-13-31.7ZM76.5,85.4c-8.7-8.7-19.2-13-31.7-13s-23,4.3-31.7,13C4.3,94.1,0,104.7,0,117.1s4.3,22.9,13,31.3c8.7,8.4,19.3,12.6,31.7,12.6s23.1-4.2,31.7-12.6c8.7-8.4,13-18.8,13-31.3s-4.3-23.1-13-31.7Z"/>
        <path class="st0" d="M498.5,341.1c5,2.5,7.8,3.8,12.8,6.3-32.4,88.5-120.3,112.7-193.6,108.1-34.4-2.2-121.1-15.8-171.3-96.1-44.5-71.3-43.4-183.3-2.6-253C203.4,4.8,345.9-27.8,453.2,25c27.5,13.5,48.4,33,64.8,57.4,22.1,33,33,83.6,14.9,121.1-14.8,28.9-46.2,47.6-78.3,49.8-43.3,5.3-92.8-26.5-91.4-72.6,0-19.2,7.8-37.5,22.4-49.2,13.7-11.6,31.7-16.2,49.5-15.7,11.5,0,23.5,4.6,34.6,5.7,8,.9,17.9-.8,21.9-8.7,6.6-14.9-6.6-32.7-16.3-43.8-13.5-14.8-30.2-24.2-49-32-40.2-16.6-97-12.4-139.6,20.5-45.2,34.8-54.1,98.7-51.5,163.8,2.7,66.4,21.1,112.1,59.8,147.2,38.8,35.1,106.4,47,157.7,18.1,10.8-6.1,29.9-19.1,45.9-45.4h0Z"/>
      </g>
    </g>
  </g>
</svg>